<svg width="1134" height="697" viewBox="0 0 1134 697" fill="none" xmlns="http://www.w3.org/2000/svg">
<rect width="1134" height="697" fill="#E5E5E5"/>
<rect width="1134" height="697" fill="white"/>
<rect width="1134" height="697" stroke="white"/>
<path d="M-115.33 104.436C-115.31 59.5522 -92.7512 11.9355 -51.5851 -16.6261C-11.8044 -44.2264 43.726 -34.0348 93.6059 -40.5262C141.817 -46.8005 193.066 -73.4996 235.259 -53.9565C277.363 -34.4551 276.78 17.0532 297.908 54.1017C318.879 90.8757 363.814 120.671 358.463 162.087C353.062 203.899 310.583 235.771 271.139 261.317C235.899 284.141 192.66 289.715 149.899 297.166C105.856 304.841 58.8898 321.904 19.2705 305.207C-20.4044 288.486 -29.5894 245.17 -51.6876 212.208C-75.6488 176.468 -115.349 146.321 -115.33 104.436Z" fill="#F2F5FF"/>
</svg>
