<svg width="428" height="715" viewBox="0 0 428 715" fill="none" xmlns="http://www.w3.org/2000/svg">
<g filter="url(#filter0_dii)">
<rect x="40" y="20" width="267.271" height="555" rx="50" fill="#FBFBFB"/>
</g>
<rect x="49.8989" y="30.5588" width="244.834" height="531.903" rx="40" fill="white"/>
<g clip-path="url(#clip0)">
<path d="M297.372 0.202148H49.8989V536.064H297.372V0.202148Z" fill="white"/>
<path d="M128.802 255.006H126.156L123.763 238.347L121.999 228.702L128.298 227.324L128.361 235.967L128.802 255.006Z" fill="#9F616A"/>
<path d="M137.306 255.006H134.408L132.014 238.347L130.25 228.702L136.55 227.324L136.613 235.967L137.306 255.006Z" fill="#9F616A"/>
<path d="M137.999 236.656L130.44 238.034L129.18 235.779L128.928 237.908L121.747 238.159L121.495 220.748L135.857 219.997L137.999 236.656Z" fill="#2F2E41"/>
<path d="M140.394 257.574H134.603C134.367 257.574 134.141 257.481 133.975 257.316C133.809 257.151 133.715 256.926 133.715 256.692V255.009C133.715 254.913 133.734 254.818 133.771 254.729C133.808 254.64 133.863 254.559 133.931 254.491C134 254.423 134.081 254.369 134.17 254.333C134.26 254.296 134.355 254.277 134.452 254.277C135.157 254.963 135.969 254.909 136.866 254.277L136.91 254.03C136.931 253.912 136.982 253.8 137.06 253.707C137.137 253.614 137.238 253.543 137.352 253.501C137.465 253.458 137.588 253.445 137.708 253.464C137.828 253.483 137.941 253.533 138.036 253.608L139.602 254.854L140.031 254.743C140.245 254.688 140.469 254.683 140.685 254.727C140.902 254.771 141.105 254.863 141.28 254.998C141.454 255.133 141.596 255.305 141.693 255.502C141.791 255.699 141.841 255.916 141.841 256.136C141.841 256.324 141.804 256.512 141.731 256.686C141.658 256.861 141.552 257.019 141.417 257.153C141.283 257.287 141.123 257.393 140.948 257.465C140.772 257.537 140.584 257.574 140.394 257.574Z" fill="#2F2E41"/>
<path d="M131.953 257.574H126.162C125.927 257.574 125.701 257.481 125.535 257.316C125.368 257.151 125.275 256.926 125.275 256.692V255.009C125.275 254.913 125.294 254.818 125.331 254.729C125.368 254.64 125.422 254.559 125.49 254.491C125.558 254.423 125.64 254.369 125.729 254.333C125.818 254.296 125.915 254.277 126.011 254.277C126.717 254.963 127.529 254.909 128.425 254.277L128.469 254.03C128.49 253.912 128.542 253.8 128.62 253.707C128.697 253.614 128.797 253.543 128.912 253.501C129.025 253.458 129.148 253.445 129.268 253.464C129.388 253.483 129.501 253.533 129.595 253.608L131.162 254.854L131.59 254.743C131.804 254.688 132.028 254.683 132.244 254.727C132.461 254.771 132.664 254.863 132.839 254.998C133.014 255.133 133.155 255.305 133.253 255.502C133.35 255.699 133.4 255.916 133.4 256.136C133.4 256.324 133.363 256.512 133.29 256.686C133.218 256.861 133.111 257.019 132.977 257.153C132.842 257.287 132.683 257.393 132.507 257.465C132.331 257.537 132.143 257.574 131.953 257.574Z" fill="#2F2E41"/>
<path d="M132.834 187.805C135.408 187.805 137.495 185.73 137.495 183.171C137.495 180.611 135.408 178.536 132.834 178.536C130.259 178.536 128.172 180.611 128.172 183.171C128.172 185.73 130.259 187.805 132.834 187.805Z" fill="#9F616A"/>
<path d="M130.062 190.811L125.778 189.684L128.802 183.171L132.834 186.051L130.062 190.811Z" fill="#9F616A"/>
<path d="M136.361 221.5C132.573 219.494 129.951 220.725 126.55 223.152C123.901 225.042 120.162 222.946 117.212 222.376L119.496 196.504C119.678 194.446 120.466 192.487 121.763 190.872C123.06 189.258 124.807 188.06 126.787 187.429L130.943 189.308C132.861 192.022 133.472 197.71 134.471 204.339C135.333 210.057 135.642 215.177 136.361 221.5Z" fill="#50C2C9"/>
<path d="M131.826 218.118L132.411 221.246C132.465 221.538 132.46 221.837 132.395 222.126C132.33 222.416 132.207 222.689 132.032 222.93C131.857 223.171 131.636 223.374 131.38 223.527C131.125 223.68 130.841 223.78 130.546 223.821C130.194 223.87 129.835 223.833 129.5 223.715C129.166 223.597 128.865 223.4 128.623 223.141C128.381 222.883 128.205 222.569 128.112 222.229C128.017 221.888 128.007 221.53 128.083 221.185L128.802 217.867L125.275 204.214L125.778 199.329L130.817 199.204C131.297 200.641 131.126 202.149 130.44 203.713L131.826 218.118Z" fill="#9F616A"/>
<path d="M130.139 183.744C130.509 183.722 130.869 183.846 131.236 183.895C132.549 184.068 133.915 183.12 134.205 181.836C134.228 181.665 134.279 181.498 134.357 181.344C134.559 181.016 135.018 180.953 135.398 181.029C135.777 181.104 136.137 181.281 136.523 181.301C137.12 181.332 137.693 180.967 138.01 180.464C138.311 179.945 138.438 179.346 138.375 178.75L138.089 179.049C137.973 178.804 137.928 178.533 137.96 178.264C137.808 178.224 137.649 178.223 137.497 178.262C137.345 178.3 137.205 178.377 137.092 178.485C136.84 178.511 137.031 178.02 136.843 177.85C136.752 177.794 136.643 177.774 136.538 177.793C136.002 177.798 135.568 177.39 135.145 177.062C134.413 176.494 133.556 176.106 132.645 175.928C132.04 175.811 131.395 175.792 130.821 176.016C130.357 176.223 129.939 176.518 129.589 176.885C128.69 177.745 127.893 178.755 127.519 179.938C127.215 180.908 127.206 181.944 127.495 182.918C127.645 183.425 128.1 185.157 128.765 185.197C129.6 185.248 129.099 183.805 130.139 183.744Z" fill="#2F2E41"/>
<path d="M132.203 201.583C129.709 199.744 127.111 199.384 124.392 200.707L125.472 193.552C125.592 192.755 125.996 192.027 126.61 191.501C127.225 190.975 128.009 190.686 128.819 190.686C129.717 190.686 130.577 191.04 131.212 191.672C131.847 192.303 132.203 193.159 132.203 194.051V201.583Z" fill="#50C2C9"/>
<path d="M226.063 183.596L225.507 183.412L230.603 168.287C230.991 167.137 231.146 165.923 231.062 164.714C230.977 163.505 230.653 162.324 230.11 161.238C229.566 160.153 228.813 159.185 227.893 158.39C226.973 157.594 225.905 156.986 224.748 156.601L192.521 145.867C191.365 145.482 190.143 145.327 188.927 145.411C187.711 145.495 186.523 145.817 185.431 146.357C184.34 146.898 183.366 147.647 182.566 148.562C181.766 149.476 181.155 150.539 180.767 151.688L152.811 234.662C152.029 236.983 152.207 239.519 153.305 241.71C154.403 243.902 156.332 245.57 158.666 246.348L190.894 257.081C193.229 257.859 195.779 257.683 197.984 256.591C200.188 255.499 201.865 253.582 202.647 251.26L221.88 194.177L222.435 194.362L226.063 183.596Z" fill="#3F3D56"/>
<path d="M224.337 158.997L220.13 157.596C220.164 158.132 220.066 158.668 219.843 159.157C219.619 159.646 219.279 160.074 218.851 160.401C218.423 160.729 217.92 160.947 217.388 161.035C216.855 161.124 216.308 161.082 215.796 160.911L197.333 154.762C196.821 154.591 196.358 154.298 195.987 153.908C195.616 153.518 195.347 153.043 195.203 152.525C195.06 152.007 195.047 151.462 195.166 150.938C195.284 150.414 195.53 149.927 195.883 149.52L191.953 148.211C190.21 147.63 188.305 147.762 186.659 148.577C185.013 149.392 183.76 150.825 183.176 152.558L155.261 235.41C154.677 237.144 154.81 239.037 155.63 240.674C156.45 242.31 157.89 243.556 159.634 244.137L192.017 254.923C192.881 255.21 193.793 255.326 194.701 255.263C195.609 255.2 196.496 254.96 197.311 254.556C198.126 254.153 198.854 253.593 199.451 252.91C200.049 252.227 200.505 251.434 200.794 250.575L228.709 167.724C228.998 166.865 229.115 165.959 229.051 165.055C228.988 164.152 228.746 163.27 228.34 162.46C227.935 161.65 227.372 160.927 226.685 160.332C225.998 159.738 225.2 159.284 224.337 158.997Z" fill="white"/>
<path d="M216.238 186.792L181.679 175.282C181.509 175.225 181.369 175.104 181.29 174.945C181.21 174.786 181.197 174.601 181.253 174.432L184.125 165.909C184.182 165.74 184.304 165.601 184.464 165.522C184.624 165.443 184.81 165.43 184.979 165.486L219.538 176.996C219.708 177.053 219.848 177.174 219.928 177.333C220.008 177.493 220.021 177.677 219.964 177.846L217.093 186.369C217.035 186.538 216.913 186.677 216.753 186.757C216.593 186.836 216.408 186.849 216.238 186.792ZM184.893 165.74C184.792 165.707 184.681 165.714 184.585 165.762C184.488 165.81 184.416 165.893 184.381 165.994L181.509 174.518C181.476 174.619 181.483 174.729 181.531 174.825C181.579 174.921 181.663 174.993 181.765 175.028L216.324 186.538C216.425 186.572 216.537 186.564 216.633 186.516C216.729 186.469 216.802 186.385 216.837 186.284L219.708 177.76C219.742 177.659 219.734 177.549 219.686 177.454C219.639 177.358 219.554 177.285 219.453 177.251L184.893 165.74Z" fill="#3F3D56"/>
<path d="M204.875 220.517L170.316 209.006C170.146 208.95 170.007 208.829 169.927 208.669C169.847 208.51 169.834 208.326 169.89 208.157L175.206 192.38C175.264 192.211 175.386 192.072 175.545 191.993C175.706 191.914 175.891 191.9 176.061 191.956L210.62 203.467C210.79 203.524 210.929 203.645 211.009 203.804C211.089 203.964 211.102 204.148 211.046 204.317L205.73 220.094C205.672 220.263 205.55 220.402 205.391 220.481C205.23 220.56 205.045 220.574 204.875 220.517ZM175.975 192.211C175.873 192.177 175.762 192.185 175.666 192.233C175.57 192.28 175.497 192.364 175.462 192.465L170.146 208.242C170.113 208.344 170.121 208.454 170.168 208.55C170.216 208.645 170.3 208.718 170.402 208.752L204.961 220.263C205.063 220.296 205.174 220.288 205.27 220.241C205.366 220.193 205.439 220.11 205.474 220.009L210.79 204.231C210.823 204.13 210.816 204.019 210.768 203.924C210.72 203.829 210.636 203.756 210.534 203.722L175.975 192.211Z" fill="#3F3D56"/>
<path d="M211.523 199.943L196.163 194.827C195.993 194.77 195.853 194.649 195.773 194.49C195.694 194.33 195.68 194.146 195.737 193.978L198.609 185.454C198.666 185.285 198.788 185.146 198.948 185.067C199.109 184.987 199.294 184.974 199.464 185.031L214.823 190.147C214.993 190.203 215.132 190.324 215.212 190.484C215.292 190.643 215.305 190.827 215.249 190.996L212.377 199.52C212.32 199.688 212.198 199.827 212.038 199.906C211.878 199.986 211.692 199.999 211.523 199.943ZM199.378 185.285C199.276 185.251 199.165 185.259 199.068 185.307C198.973 185.354 198.9 185.438 198.865 185.539L195.993 194.063C195.96 194.164 195.967 194.275 196.015 194.37C196.063 194.465 196.147 194.538 196.249 194.572L211.608 199.688C211.71 199.722 211.822 199.714 211.917 199.666C212.014 199.619 212.087 199.535 212.121 199.434L214.993 190.911C215.027 190.809 215.019 190.699 214.971 190.603C214.923 190.508 214.839 190.435 214.737 190.401L199.378 185.285Z" fill="#E6E6E6"/>
<path d="M178.73 234.739L163.37 229.623C163.201 229.566 163.061 229.445 162.981 229.286C162.901 229.126 162.888 228.942 162.945 228.774L168.303 212.869C168.36 212.7 168.482 212.561 168.643 212.481C168.803 212.402 168.988 212.39 169.157 212.446L184.517 217.561C184.687 217.618 184.827 217.74 184.906 217.899C184.986 218.058 184.999 218.242 184.943 218.411L179.584 234.316C179.527 234.484 179.405 234.623 179.245 234.702C179.085 234.782 178.9 234.795 178.73 234.739ZM169.072 212.7C168.97 212.666 168.859 212.674 168.763 212.722C168.667 212.769 168.594 212.853 168.559 212.954L163.201 228.859C163.166 228.96 163.174 229.071 163.222 229.166C163.27 229.261 163.354 229.335 163.456 229.368L178.815 234.484C178.918 234.518 179.028 234.51 179.125 234.463C179.22 234.415 179.294 234.332 179.328 234.23L184.687 218.326C184.721 218.224 184.713 218.114 184.665 218.018C184.617 217.922 184.533 217.85 184.431 217.816L169.072 212.7Z" fill="#E6E6E6"/>
<path d="M197.674 241.048L182.314 235.933C182.144 235.876 182.004 235.754 181.924 235.595C181.844 235.436 181.831 235.251 181.888 235.083L187.247 219.178C187.304 219.009 187.425 218.87 187.586 218.791C187.746 218.712 187.932 218.699 188.101 218.755L203.46 223.871C203.63 223.928 203.771 224.049 203.85 224.208C203.93 224.367 203.943 224.551 203.886 224.72L198.527 240.625C198.471 240.794 198.349 240.933 198.188 241.012C198.029 241.091 197.843 241.104 197.674 241.048ZM188.015 219.009C187.913 218.976 187.802 218.984 187.706 219.031C187.61 219.079 187.537 219.162 187.503 219.263L182.144 235.168C182.11 235.269 182.118 235.38 182.166 235.475C182.213 235.571 182.298 235.643 182.399 235.678L197.759 240.794C197.861 240.827 197.972 240.819 198.068 240.772C198.165 240.724 198.238 240.641 198.271 240.539L203.63 224.635C203.664 224.534 203.656 224.423 203.609 224.328C203.561 224.232 203.477 224.159 203.375 224.125L188.015 219.009Z" fill="#E6E6E6"/>
<path d="M179.292 201.983C180.81 201.983 182.041 200.758 182.041 199.249C182.041 197.739 180.81 196.515 179.292 196.515C177.773 196.515 176.543 197.739 176.543 199.249C176.543 200.758 177.773 201.983 179.292 201.983Z" fill="#50C2C9"/>
<path d="M185.894 199.526C185.837 199.506 185.777 199.498 185.717 199.502C185.656 199.506 185.597 199.522 185.543 199.549C185.489 199.576 185.441 199.613 185.401 199.658C185.362 199.703 185.331 199.756 185.312 199.813C185.293 199.869 185.285 199.929 185.289 199.989C185.294 200.05 185.31 200.108 185.337 200.162C185.364 200.215 185.401 200.263 185.447 200.302C185.493 200.341 185.546 200.372 185.603 200.39L206.086 207.212C206.143 207.232 206.204 207.239 206.264 207.235C206.324 207.232 206.384 207.216 206.438 207.189C206.492 207.163 206.54 207.126 206.58 207.08C206.619 207.036 206.65 206.983 206.669 206.926C206.688 206.869 206.696 206.809 206.691 206.749C206.687 206.689 206.671 206.63 206.644 206.577C206.617 206.523 206.58 206.475 206.533 206.436C206.488 206.397 206.435 206.367 206.378 206.349L185.894 199.526Z" fill="#E6E6E6"/>
<path d="M185.021 202.118C184.964 202.099 184.904 202.091 184.843 202.095C184.783 202.099 184.724 202.115 184.67 202.141C184.616 202.167 184.568 202.204 184.528 202.25C184.488 202.295 184.458 202.347 184.439 202.405C184.419 202.462 184.412 202.522 184.416 202.582C184.421 202.641 184.437 202.7 184.464 202.753C184.491 202.807 184.528 202.855 184.574 202.895C184.619 202.934 184.673 202.963 184.73 202.982L193.544 205.918C193.659 205.955 193.784 205.946 193.893 205.892C194.001 205.839 194.083 205.744 194.122 205.63C194.16 205.516 194.151 205.391 194.098 205.283C194.044 205.175 193.95 205.093 193.835 205.054L185.021 202.118Z" fill="#E6E6E6"/>
<path d="M175.605 203.591C175.274 203.481 174.94 203.585 174.86 203.823C174.779 204.061 174.983 204.344 175.314 204.455L203.574 213.867C203.905 213.977 204.239 213.873 204.319 213.635C204.4 213.397 204.196 213.114 203.865 213.003L175.605 203.591Z" fill="#E6E6E6"/>
<path d="M174.732 206.182C174.401 206.073 174.066 206.177 173.987 206.415C173.906 206.653 174.11 206.937 174.44 207.047L202.701 216.46C203.031 216.57 203.365 216.465 203.446 216.227C203.526 215.989 203.322 215.705 202.992 215.596L174.732 206.182Z" fill="#E6E6E6"/>
<path d="M188.809 174.579C190.327 174.579 191.559 173.355 191.559 171.846C191.559 170.336 190.327 169.112 188.809 169.112C187.291 169.112 186.06 170.336 186.06 171.846C186.06 173.355 187.291 174.579 188.809 174.579Z" fill="#50C2C9"/>
<path d="M195.412 172.123C195.355 172.104 195.294 172.096 195.234 172.1C195.174 172.104 195.116 172.12 195.062 172.147C195.008 172.174 194.96 172.211 194.92 172.256C194.881 172.301 194.851 172.353 194.832 172.41C194.813 172.467 194.805 172.527 194.809 172.586C194.813 172.646 194.829 172.704 194.856 172.758C194.883 172.812 194.92 172.859 194.966 172.899C195.011 172.938 195.064 172.968 195.121 172.987L215.604 179.809C215.719 179.847 215.845 179.837 215.953 179.784C216.061 179.73 216.144 179.635 216.182 179.521C216.22 179.407 216.212 179.282 216.158 179.174C216.104 179.067 216.01 178.984 215.895 178.945L195.412 172.123Z" fill="#E6E6E6"/>
<path d="M194.539 174.715C194.481 174.696 194.421 174.688 194.361 174.692C194.301 174.696 194.242 174.712 194.188 174.739C194.135 174.766 194.087 174.803 194.047 174.848C194.008 174.892 193.977 174.945 193.958 175.002C193.939 175.059 193.932 175.119 193.936 175.178C193.94 175.238 193.956 175.296 193.982 175.35C194.01 175.403 194.047 175.451 194.092 175.49C194.138 175.53 194.19 175.56 194.248 175.579L203.062 178.514C203.177 178.552 203.302 178.543 203.41 178.489C203.518 178.435 203.601 178.341 203.639 178.226C203.677 178.112 203.669 177.987 203.615 177.879C203.562 177.772 203.468 177.689 203.353 177.65L194.539 174.715Z" fill="#E6E6E6"/>
<path d="M192.565 193.63L178.157 188.831L183.515 184.121C183.611 184.037 183.727 183.979 183.853 183.953C183.979 183.928 184.109 183.936 184.231 183.976C184.352 184.017 184.46 184.089 184.546 184.184C184.631 184.279 184.689 184.396 184.714 184.52L185.322 187.497L189.215 184.076C189.335 183.971 189.48 183.898 189.638 183.866C189.795 183.835 189.958 183.845 190.11 183.895C190.262 183.946 190.398 184.036 190.505 184.155C190.611 184.275 190.684 184.42 190.716 184.576L192.565 193.63ZM178.685 188.724L192.207 193.228L190.451 184.63C190.429 184.52 190.377 184.417 190.303 184.333C190.227 184.249 190.132 184.186 190.024 184.15C189.917 184.114 189.803 184.107 189.692 184.13C189.581 184.152 189.478 184.203 189.393 184.277L185.151 188.007L184.449 184.574C184.433 184.495 184.397 184.422 184.344 184.362C184.289 184.302 184.221 184.256 184.145 184.231C184.068 184.205 183.986 184.2 183.907 184.217C183.828 184.233 183.754 184.269 183.694 184.322L178.685 188.724Z" fill="#E6E6E6"/>
<path d="M210.997 199.769L196.588 194.97L201.947 190.26C202.042 190.176 202.159 190.118 202.284 190.092C202.41 190.067 202.54 190.075 202.662 190.115C202.783 190.156 202.892 190.227 202.977 190.323C203.062 190.419 203.12 190.534 203.146 190.659L203.753 193.636L207.646 190.215C207.766 190.109 207.912 190.037 208.069 190.005C208.226 189.974 208.389 189.984 208.542 190.034C208.694 190.085 208.83 190.174 208.936 190.294C209.043 190.413 209.115 190.559 209.147 190.715L210.997 199.769ZM197.117 194.863L210.639 199.367L208.882 190.768C208.86 190.658 208.809 190.556 208.734 190.472C208.659 190.388 208.563 190.324 208.456 190.289C208.348 190.253 208.234 190.246 208.123 190.268C208.012 190.291 207.909 190.342 207.825 190.416L203.582 194.145L202.881 190.713C202.865 190.634 202.828 190.561 202.775 190.5C202.721 190.44 202.653 190.395 202.576 190.37C202.5 190.344 202.418 190.339 202.339 190.355C202.259 190.371 202.185 190.408 202.125 190.461L197.117 194.863Z" fill="#E6E6E6"/>
<path d="M192.58 193.633L177.22 188.517C177.05 188.461 176.91 188.339 176.83 188.18C176.75 188.021 176.737 187.836 176.794 187.668L179.666 179.144C179.723 178.975 179.845 178.836 180.005 178.757C180.165 178.678 180.35 178.665 180.52 178.721L195.88 183.837C196.049 183.894 196.189 184.015 196.269 184.174C196.349 184.333 196.362 184.517 196.305 184.686L193.433 193.21C193.377 193.378 193.255 193.518 193.094 193.597C192.935 193.677 192.749 193.689 192.58 193.633ZM180.434 178.975C180.333 178.942 180.222 178.95 180.125 178.997C180.029 179.045 179.956 179.129 179.922 179.229L177.05 187.753C177.016 187.854 177.024 187.965 177.072 188.061C177.119 188.156 177.204 188.229 177.305 188.263L192.665 193.378C192.767 193.412 192.878 193.405 192.974 193.357C193.071 193.309 193.143 193.226 193.177 193.125L196.049 184.601C196.083 184.5 196.076 184.389 196.028 184.294C195.979 184.198 195.896 184.125 195.794 184.092L180.434 178.975Z" fill="#E6E6E6"/>
<path d="M171.325 216.816C171.269 216.796 171.208 216.788 171.148 216.792C171.088 216.796 171.028 216.812 170.974 216.838C170.92 216.865 170.872 216.902 170.832 216.947C170.793 216.993 170.762 217.045 170.743 217.102C170.724 217.159 170.716 217.219 170.721 217.279C170.725 217.339 170.741 217.397 170.768 217.451C170.795 217.505 170.832 217.552 170.878 217.592C170.924 217.631 170.977 217.66 171.034 217.68L179.848 220.615C179.906 220.634 179.966 220.642 180.026 220.638C180.086 220.633 180.145 220.618 180.199 220.591C180.252 220.565 180.3 220.527 180.34 220.482C180.379 220.437 180.41 220.385 180.429 220.328C180.448 220.271 180.455 220.211 180.451 220.152C180.447 220.092 180.431 220.034 180.405 219.98C180.378 219.927 180.34 219.878 180.295 219.84C180.249 219.8 180.197 219.77 180.139 219.751L171.325 216.816Z" fill="#E6E6E6"/>
<path d="M170.468 219.361C170.353 219.323 170.228 219.332 170.12 219.386C170.011 219.44 169.929 219.535 169.89 219.649C169.852 219.763 169.86 219.888 169.914 219.995C169.968 220.104 170.062 220.186 170.177 220.225L178.991 223.16C179.106 223.198 179.231 223.189 179.34 223.135C179.448 223.081 179.53 222.987 179.569 222.873C179.607 222.759 179.598 222.634 179.545 222.526C179.491 222.418 179.396 222.335 179.282 222.297L170.468 219.361Z" fill="#E6E6E6"/>
<path d="M172.155 228.901C171.614 228.721 171.139 228.385 170.79 227.937C170.441 227.488 170.234 226.946 170.194 226.381C170.154 225.815 170.284 225.25 170.567 224.758C170.851 224.266 171.274 223.868 171.785 223.615C172.296 223.362 172.871 223.265 173.436 223.337C174.002 223.409 174.534 223.646 174.964 224.018C175.395 224.39 175.704 224.881 175.854 225.428C176.004 225.975 175.987 226.555 175.806 227.093C175.562 227.813 175.041 228.409 174.357 228.747C173.672 229.086 172.881 229.142 172.155 228.901ZM173.901 223.717C173.411 223.554 172.883 223.538 172.384 223.674C171.885 223.809 171.438 224.088 171.099 224.475C170.76 224.863 170.543 225.343 170.478 225.853C170.412 226.363 170.501 226.88 170.731 227.341C170.961 227.801 171.324 228.183 171.773 228.438C172.222 228.693 172.737 228.811 173.253 228.775C173.768 228.739 174.262 228.552 174.671 228.238C175.08 227.923 175.386 227.495 175.55 227.008C175.77 226.354 175.719 225.64 175.41 225.023C175.101 224.406 174.559 223.936 173.901 223.717Z" fill="#E6E6E6"/>
<path d="M195.506 236.678C195.562 236.697 195.623 236.705 195.683 236.701C195.744 236.697 195.803 236.682 195.857 236.655C195.911 236.629 195.959 236.592 195.999 236.546C196.038 236.501 196.069 236.449 196.088 236.392C196.107 236.334 196.115 236.274 196.111 236.215C196.106 236.155 196.09 236.096 196.063 236.043C196.036 235.989 195.999 235.941 195.953 235.902C195.907 235.863 195.854 235.833 195.797 235.814L186.983 232.878C186.925 232.859 186.865 232.851 186.805 232.855C186.744 232.859 186.686 232.875 186.632 232.901C186.577 232.928 186.529 232.965 186.49 233.01C186.449 233.055 186.42 233.108 186.4 233.165C186.381 233.222 186.374 233.282 186.378 233.342C186.382 233.402 186.398 233.46 186.425 233.514C186.452 233.567 186.49 233.615 186.535 233.654C186.581 233.694 186.634 233.724 186.692 233.742L195.506 236.678Z" fill="#E6E6E6"/>
<path d="M196.363 234.133C196.42 234.152 196.48 234.159 196.54 234.155C196.6 234.152 196.659 234.136 196.713 234.109C196.767 234.082 196.815 234.045 196.855 234C196.894 233.955 196.924 233.903 196.944 233.846C196.963 233.789 196.97 233.729 196.966 233.669C196.962 233.61 196.946 233.552 196.919 233.498C196.892 233.444 196.855 233.397 196.81 233.357C196.764 233.318 196.711 233.288 196.654 233.269L187.84 230.333C187.783 230.314 187.722 230.306 187.662 230.31C187.602 230.314 187.543 230.33 187.489 230.356C187.435 230.383 187.387 230.42 187.347 230.465C187.307 230.511 187.277 230.563 187.258 230.62C187.239 230.677 187.231 230.737 187.235 230.797C187.239 230.856 187.256 230.915 187.283 230.969C187.31 231.023 187.348 231.07 187.393 231.11C187.439 231.149 187.491 231.179 187.549 231.198L196.363 234.133Z" fill="#E6E6E6"/>
<path d="M194.676 224.593C195.217 224.773 195.692 225.108 196.041 225.557C196.39 226.006 196.597 226.547 196.637 227.113C196.676 227.679 196.546 228.244 196.263 228.736C195.98 229.228 195.556 229.626 195.046 229.879C194.535 230.132 193.961 230.229 193.395 230.157C192.829 230.085 192.297 229.848 191.867 229.476C191.437 229.104 191.126 228.613 190.977 228.066C190.827 227.518 190.843 226.939 191.025 226.401C191.268 225.681 191.79 225.085 192.474 224.746C193.159 224.408 193.95 224.352 194.676 224.593ZM192.929 229.777C193.42 229.94 193.948 229.955 194.446 229.82C194.945 229.685 195.393 229.406 195.732 229.018C196.071 228.631 196.288 228.151 196.353 227.641C196.418 227.131 196.331 226.613 196.1 226.153C195.869 225.693 195.506 225.311 195.058 225.056C194.609 224.8 194.094 224.683 193.578 224.719C193.063 224.755 192.569 224.942 192.16 225.256C191.751 225.571 191.445 225.999 191.281 226.486C191.061 227.14 191.112 227.854 191.421 228.471C191.73 229.087 192.272 229.557 192.929 229.777Z" fill="#E6E6E6"/>
<path d="M88.1681 292.693C87.9781 292.345 87.7168 292.079 87.3841 291.897C87.0515 291.715 86.6635 291.624 86.22 291.624C85.729 291.624 85.2935 291.735 84.9134 291.957C84.5333 292.178 84.2363 292.495 84.0225 292.907C83.8087 293.319 83.7017 293.794 83.7017 294.332C83.7017 294.887 83.8087 295.37 84.0225 295.782C84.2442 296.193 84.5491 296.51 84.9371 296.732C85.3252 296.954 85.7766 297.064 86.2913 297.064C86.9248 297.064 87.4435 296.898 87.8474 296.566C88.2513 296.225 88.5166 295.754 88.6433 295.152H85.7924V293.881H90.2826V295.33C90.1717 295.908 89.9341 296.443 89.5698 296.934C89.2056 297.425 88.7344 297.821 88.1563 298.122C87.5861 298.415 86.9446 298.561 86.2319 298.561C85.4321 298.561 84.7075 298.383 84.0581 298.027C83.4167 297.662 82.9098 297.16 82.5376 296.518C82.1734 295.877 81.9912 295.148 81.9912 294.332C81.9912 293.517 82.1734 292.788 82.5376 292.147C82.9098 291.497 83.4167 290.994 84.0581 290.638C84.7075 290.274 85.4281 290.092 86.22 290.092C87.1545 290.092 87.9662 290.321 88.6552 290.781C89.3441 291.232 89.8193 291.87 90.0806 292.693H88.1681ZM98.3432 295.057C98.3432 295.295 98.3274 295.508 98.2957 295.698H93.4848C93.5244 296.174 93.6907 296.546 93.9837 296.815C94.2767 297.084 94.637 297.219 95.0647 297.219C95.6824 297.219 96.1219 296.954 96.3832 296.423H98.1769C97.9868 297.057 97.6225 297.579 97.084 297.991C96.5455 298.395 95.8843 298.597 95.1003 298.597C94.4668 298.597 93.8966 298.458 93.3898 298.181C92.8909 297.896 92.4989 297.496 92.2138 296.981C91.9366 296.467 91.798 295.873 91.798 295.2C91.798 294.518 91.9366 293.921 92.2138 293.406C92.4909 292.891 92.879 292.495 93.3779 292.218C93.8768 291.941 94.4509 291.802 95.1003 291.802C95.7259 291.802 96.2842 291.937 96.7752 292.206C97.2741 292.475 97.6582 292.859 97.9274 293.358C98.2046 293.849 98.3432 294.416 98.3432 295.057ZM96.6208 294.582C96.6129 294.154 96.4584 293.814 96.1575 293.56C95.8566 293.299 95.4883 293.168 95.0528 293.168C94.641 293.168 94.2925 293.295 94.0075 293.548C93.7303 293.794 93.56 294.138 93.4967 294.582H96.6208ZM102.206 293.275V296.459C102.206 296.68 102.257 296.843 102.36 296.946C102.471 297.041 102.653 297.088 102.907 297.088H103.679V298.49H102.634C101.232 298.49 100.531 297.809 100.531 296.447V293.275H99.7471V291.909H100.531V290.282H102.206V291.909H103.679V293.275H102.206ZM108.106 298.597C107.568 298.597 107.085 298.502 106.657 298.312C106.229 298.114 105.889 297.848 105.635 297.516C105.39 297.183 105.255 296.815 105.231 296.411H106.906C106.938 296.665 107.061 296.874 107.275 297.041C107.496 297.207 107.77 297.29 108.094 297.29C108.411 297.29 108.656 297.227 108.831 297.1C109.013 296.973 109.104 296.811 109.104 296.613C109.104 296.399 108.993 296.241 108.771 296.138C108.557 296.027 108.213 295.908 107.738 295.782C107.247 295.663 106.843 295.54 106.526 295.413C106.217 295.287 105.948 295.093 105.718 294.831C105.497 294.57 105.386 294.218 105.386 293.774C105.386 293.41 105.489 293.077 105.695 292.776C105.909 292.475 106.209 292.238 106.598 292.064C106.993 291.889 107.457 291.802 107.987 291.802C108.771 291.802 109.397 292 109.864 292.396C110.331 292.784 110.589 293.311 110.636 293.976H109.045C109.021 293.715 108.91 293.509 108.712 293.358C108.522 293.2 108.264 293.121 107.94 293.121C107.639 293.121 107.405 293.176 107.239 293.287C107.081 293.398 107.001 293.552 107.001 293.75C107.001 293.972 107.112 294.142 107.334 294.261C107.556 294.372 107.9 294.487 108.367 294.606C108.843 294.724 109.235 294.847 109.543 294.974C109.852 295.101 110.118 295.299 110.339 295.568C110.569 295.829 110.688 296.178 110.696 296.613C110.696 296.993 110.589 297.334 110.375 297.635C110.169 297.936 109.868 298.173 109.472 298.347C109.084 298.514 108.629 298.597 108.106 298.597ZM118.253 293.275V296.459C118.253 296.68 118.304 296.843 118.407 296.946C118.518 297.041 118.7 297.088 118.954 297.088H119.726V298.49H118.681C117.279 298.49 116.578 297.809 116.578 296.447V293.275H115.794V291.909H116.578V290.282H118.253V291.909H119.726V293.275H118.253ZM125.341 291.814C125.84 291.814 126.283 291.925 126.671 292.147C127.059 292.361 127.36 292.681 127.574 293.109C127.796 293.529 127.906 294.035 127.906 294.629V298.49H126.243V294.855C126.243 294.332 126.113 293.932 125.851 293.655C125.59 293.37 125.234 293.228 124.782 293.228C124.323 293.228 123.959 293.37 123.689 293.655C123.428 293.932 123.297 294.332 123.297 294.855V298.49H121.634V289.7H123.297V292.729C123.511 292.444 123.796 292.222 124.153 292.064C124.509 291.897 124.905 291.814 125.341 291.814ZM131.044 291.125C130.751 291.125 130.506 291.034 130.308 290.852C130.118 290.662 130.023 290.428 130.023 290.151C130.023 289.874 130.118 289.644 130.308 289.462C130.506 289.272 130.751 289.177 131.044 289.177C131.337 289.177 131.579 289.272 131.769 289.462C131.967 289.644 132.066 289.874 132.066 290.151C132.066 290.428 131.967 290.662 131.769 290.852C131.579 291.034 131.337 291.125 131.044 291.125ZM131.864 291.909V298.49H130.201V291.909H131.864ZM137.867 291.814C138.651 291.814 139.284 292.064 139.767 292.562C140.25 293.053 140.492 293.742 140.492 294.629V298.49H138.829V294.855C138.829 294.332 138.698 293.932 138.437 293.655C138.176 293.37 137.819 293.228 137.368 293.228C136.908 293.228 136.544 293.37 136.275 293.655C136.014 293.932 135.883 294.332 135.883 294.855V298.49H134.22V291.909H135.883V292.729C136.105 292.444 136.386 292.222 136.726 292.064C137.075 291.897 137.455 291.814 137.867 291.814ZM145.364 291.802C145.854 291.802 146.286 291.901 146.658 292.099C147.03 292.289 147.323 292.539 147.537 292.848V291.909H149.212V298.537C149.212 299.147 149.089 299.69 148.844 300.165C148.598 300.648 148.23 301.028 147.739 301.305C147.248 301.59 146.654 301.733 145.957 301.733C145.023 301.733 144.255 301.515 143.653 301.079C143.059 300.644 142.722 300.05 142.643 299.298H144.294C144.382 299.599 144.568 299.836 144.853 300.01C145.146 300.193 145.498 300.284 145.91 300.284C146.393 300.284 146.785 300.137 147.086 299.844C147.387 299.559 147.537 299.123 147.537 298.537V297.516C147.323 297.825 147.027 298.082 146.646 298.288C146.274 298.494 145.847 298.597 145.364 298.597C144.809 298.597 144.302 298.454 143.843 298.169C143.384 297.884 143.019 297.484 142.75 296.969C142.489 296.447 142.358 295.849 142.358 295.176C142.358 294.511 142.489 293.921 142.75 293.406C143.019 292.891 143.38 292.495 143.831 292.218C144.29 291.941 144.801 291.802 145.364 291.802ZM147.537 295.2C147.537 294.796 147.458 294.451 147.3 294.166C147.141 293.873 146.928 293.651 146.658 293.501C146.389 293.342 146.1 293.263 145.791 293.263C145.482 293.263 145.197 293.339 144.936 293.489C144.675 293.639 144.461 293.861 144.294 294.154C144.136 294.439 144.057 294.78 144.057 295.176C144.057 295.572 144.136 295.92 144.294 296.221C144.461 296.514 144.675 296.74 144.936 296.898C145.205 297.057 145.49 297.136 145.791 297.136C146.1 297.136 146.389 297.061 146.658 296.91C146.928 296.752 147.141 296.53 147.3 296.245C147.458 295.952 147.537 295.603 147.537 295.2ZM154.067 298.597C153.529 298.597 153.046 298.502 152.618 298.312C152.19 298.114 151.85 297.848 151.597 297.516C151.351 297.183 151.216 296.815 151.193 296.411H152.868C152.899 296.665 153.022 296.874 153.236 297.041C153.458 297.207 153.731 297.29 154.055 297.29C154.372 297.29 154.618 297.227 154.792 297.1C154.974 296.973 155.065 296.811 155.065 296.613C155.065 296.399 154.954 296.241 154.733 296.138C154.519 296.027 154.174 295.908 153.699 295.782C153.208 295.663 152.804 295.54 152.487 295.413C152.179 295.287 151.909 295.093 151.68 294.831C151.458 294.57 151.347 294.218 151.347 293.774C151.347 293.41 151.45 293.077 151.656 292.776C151.87 292.475 152.171 292.238 152.559 292.064C152.955 291.889 153.418 291.802 153.949 291.802C154.733 291.802 155.358 292 155.825 292.396C156.293 292.784 156.55 293.311 156.597 293.976H155.006C154.982 293.715 154.871 293.509 154.673 293.358C154.483 293.2 154.226 293.121 153.901 293.121C153.6 293.121 153.366 293.176 153.2 293.287C153.042 293.398 152.963 293.552 152.963 293.75C152.963 293.972 153.073 294.142 153.295 294.261C153.517 294.372 153.861 294.487 154.329 294.606C154.804 294.724 155.196 294.847 155.505 294.974C155.813 295.101 156.079 295.299 156.301 295.568C156.53 295.829 156.649 296.178 156.657 296.613C156.657 296.993 156.55 297.334 156.336 297.635C156.13 297.936 155.829 298.173 155.433 298.347C155.045 298.514 154.59 298.597 154.067 298.597ZM161.851 295.176C161.851 294.511 161.981 293.921 162.242 293.406C162.512 292.891 162.876 292.495 163.335 292.218C163.795 291.941 164.305 291.802 164.868 291.802C165.295 291.802 165.703 291.897 166.091 292.087C166.479 292.269 166.788 292.515 167.018 292.824V289.7H168.705V298.49H167.018V297.516C166.812 297.841 166.523 298.102 166.151 298.3C165.778 298.498 165.347 298.597 164.856 298.597C164.301 298.597 163.795 298.454 163.335 298.169C162.876 297.884 162.512 297.484 162.242 296.969C161.981 296.447 161.851 295.849 161.851 295.176ZM167.03 295.2C167.03 294.796 166.95 294.451 166.792 294.166C166.634 293.873 166.42 293.651 166.151 293.501C165.881 293.342 165.592 293.263 165.283 293.263C164.975 293.263 164.69 293.339 164.428 293.489C164.167 293.639 163.953 293.861 163.787 294.154C163.628 294.439 163.549 294.78 163.549 295.176C163.549 295.572 163.628 295.92 163.787 296.221C163.953 296.514 164.167 296.74 164.428 296.898C164.697 297.057 164.983 297.136 165.283 297.136C165.592 297.136 165.881 297.061 166.151 296.91C166.42 296.752 166.634 296.53 166.792 296.245C166.95 295.952 167.03 295.603 167.03 295.2ZM173.963 298.597C173.33 298.597 172.76 298.458 172.253 298.181C171.746 297.896 171.346 297.496 171.053 296.981C170.768 296.467 170.626 295.873 170.626 295.2C170.626 294.526 170.772 293.932 171.065 293.418C171.366 292.903 171.774 292.507 172.289 292.23C172.803 291.945 173.377 291.802 174.011 291.802C174.645 291.802 175.219 291.945 175.733 292.23C176.248 292.507 176.652 292.903 176.945 293.418C177.246 293.932 177.396 294.526 177.396 295.2C177.396 295.873 177.242 296.467 176.933 296.981C176.632 297.496 176.22 297.896 175.698 298.181C175.183 298.458 174.605 298.597 173.963 298.597ZM173.963 297.148C174.264 297.148 174.546 297.076 174.807 296.934C175.076 296.783 175.29 296.562 175.448 296.269C175.607 295.976 175.686 295.619 175.686 295.2C175.686 294.574 175.52 294.095 175.187 293.762C174.862 293.422 174.462 293.251 173.987 293.251C173.512 293.251 173.112 293.422 172.788 293.762C172.471 294.095 172.312 294.574 172.312 295.2C172.312 295.825 172.467 296.308 172.776 296.649C173.092 296.981 173.488 297.148 173.963 297.148ZM182.976 291.814C183.76 291.814 184.394 292.064 184.877 292.562C185.36 293.053 185.601 293.742 185.601 294.629V298.49H183.938V294.855C183.938 294.332 183.808 293.932 183.546 293.655C183.285 293.37 182.929 293.228 182.477 293.228C182.018 293.228 181.654 293.37 181.384 293.655C181.123 293.932 180.992 294.332 180.992 294.855V298.49H179.329V291.909H180.992V292.729C181.214 292.444 181.495 292.222 181.836 292.064C182.184 291.897 182.564 291.814 182.976 291.814ZM194.013 295.057C194.013 295.295 193.997 295.508 193.965 295.698H189.154C189.194 296.174 189.36 296.546 189.653 296.815C189.946 297.084 190.307 297.219 190.734 297.219C191.352 297.219 191.791 296.954 192.053 296.423H193.846C193.656 297.057 193.292 297.579 192.754 297.991C192.215 298.395 191.554 298.597 190.77 298.597C190.136 298.597 189.566 298.458 189.059 298.181C188.56 297.896 188.168 297.496 187.883 296.981C187.606 296.467 187.468 295.873 187.468 295.2C187.468 294.518 187.606 293.921 187.883 293.406C188.161 292.891 188.549 292.495 189.047 292.218C189.546 291.941 190.121 291.802 190.77 291.802C191.396 291.802 191.954 291.937 192.445 292.206C192.944 292.475 193.328 292.859 193.597 293.358C193.874 293.849 194.013 294.416 194.013 295.057ZM192.29 294.582C192.282 294.154 192.128 293.814 191.827 293.56C191.526 293.299 191.158 293.168 190.722 293.168C190.311 293.168 189.962 293.295 189.677 293.548C189.4 293.794 189.23 294.138 189.166 294.582H192.29ZM208.605 291.909L206.681 298.49H204.887L203.687 293.893L202.488 298.49H200.682L198.746 291.909H200.433L201.597 296.922L202.856 291.909H204.614L205.849 296.91L207.013 291.909H208.605ZM211.061 291.125C210.768 291.125 210.523 291.034 210.325 290.852C210.135 290.662 210.04 290.428 210.04 290.151C210.04 289.874 210.135 289.644 210.325 289.462C210.523 289.272 210.768 289.177 211.061 289.177C211.354 289.177 211.596 289.272 211.786 289.462C211.984 289.644 212.083 289.874 212.083 290.151C212.083 290.428 211.984 290.662 211.786 290.852C211.596 291.034 211.354 291.125 211.061 291.125ZM211.881 291.909V298.49H210.218V291.909H211.881ZM216.173 293.275V296.459C216.173 296.68 216.225 296.843 216.328 296.946C216.438 297.041 216.621 297.088 216.874 297.088H217.646V298.49H216.601C215.199 298.49 214.498 297.809 214.498 296.447V293.275H213.714V291.909H214.498V290.282H216.173V291.909H217.646V293.275H216.173ZM223.261 291.814C223.76 291.814 224.203 291.925 224.591 292.147C224.979 292.361 225.28 292.681 225.494 293.109C225.716 293.529 225.827 294.035 225.827 294.629V298.49H224.164V294.855C224.164 294.332 224.033 293.932 223.772 293.655C223.51 293.37 223.154 293.228 222.703 293.228C222.243 293.228 221.879 293.37 221.61 293.655C221.348 293.932 221.218 294.332 221.218 294.855V298.49H219.555V289.7H221.218V292.729C221.432 292.444 221.717 292.222 222.073 292.064C222.429 291.897 222.825 291.814 223.261 291.814ZM237.307 290.199V291.541H235.097V298.49H233.434V291.541H231.225V290.199H237.307ZM243.081 298.573C242.305 298.573 241.592 298.391 240.943 298.027C240.294 297.662 239.779 297.16 239.399 296.518C239.019 295.869 238.829 295.136 238.829 294.32C238.829 293.513 239.019 292.788 239.399 292.147C239.779 291.497 240.294 290.99 240.943 290.626C241.592 290.262 242.305 290.08 243.081 290.08C243.865 290.08 244.578 290.262 245.219 290.626C245.869 290.99 246.379 291.497 246.752 292.147C247.132 292.788 247.322 293.513 247.322 294.32C247.322 295.136 247.132 295.869 246.752 296.518C246.379 297.16 245.869 297.662 245.219 298.027C244.57 298.391 243.857 298.573 243.081 298.573ZM243.081 297.088C243.58 297.088 244.02 296.977 244.4 296.756C244.78 296.526 245.077 296.201 245.291 295.782C245.504 295.362 245.611 294.875 245.611 294.32C245.611 293.766 245.504 293.283 245.291 292.871C245.077 292.452 244.78 292.131 244.4 291.909C244.02 291.687 243.58 291.576 243.081 291.576C242.582 291.576 242.139 291.687 241.751 291.909C241.371 292.131 241.074 292.452 240.86 292.871C240.646 293.283 240.539 293.766 240.539 294.32C240.539 294.875 240.646 295.362 240.86 295.782C241.074 296.201 241.371 296.526 241.751 296.756C242.139 296.977 242.582 297.088 243.081 297.088ZM252.17 290.199C253.041 290.199 253.806 290.369 254.463 290.709C255.128 291.05 255.639 291.537 255.995 292.17C256.36 292.796 256.542 293.525 256.542 294.356C256.542 295.188 256.36 295.916 255.995 296.542C255.639 297.16 255.128 297.639 254.463 297.979C253.806 298.32 253.041 298.49 252.17 298.49H249.272V290.199H252.17ZM252.111 297.076C252.982 297.076 253.655 296.839 254.13 296.364C254.605 295.888 254.843 295.219 254.843 294.356C254.843 293.493 254.605 292.82 254.13 292.337C253.655 291.846 252.982 291.6 252.111 291.6H250.935V297.076H252.111ZM262.348 298.573C261.572 298.573 260.86 298.391 260.21 298.027C259.561 297.662 259.046 297.16 258.666 296.518C258.286 295.869 258.096 295.136 258.096 294.32C258.096 293.513 258.286 292.788 258.666 292.147C259.046 291.497 259.561 290.99 260.21 290.626C260.86 290.262 261.572 290.08 262.348 290.08C263.132 290.08 263.845 290.262 264.487 290.626C265.136 290.99 265.647 291.497 266.019 292.147C266.399 292.788 266.589 293.513 266.589 294.32C266.589 295.136 266.399 295.869 266.019 296.518C265.647 297.16 265.136 297.662 264.487 298.027C263.837 298.391 263.124 298.573 262.348 298.573ZM262.348 297.088C262.847 297.088 263.287 296.977 263.667 296.756C264.047 296.526 264.344 296.201 264.558 295.782C264.772 295.362 264.879 294.875 264.879 294.32C264.879 293.766 264.772 293.283 264.558 292.871C264.344 292.452 264.047 292.131 263.667 291.909C263.287 291.687 262.847 291.576 262.348 291.576C261.85 291.576 261.406 291.687 261.018 291.909C260.638 292.131 260.341 292.452 260.127 292.871C259.913 293.283 259.806 293.766 259.806 294.32C259.806 294.875 259.913 295.362 260.127 295.782C260.341 296.201 260.638 296.526 261.018 296.756C261.406 296.977 261.85 297.088 262.348 297.088Z" fill="black" fill-opacity="0.75"/>
<path d="M89.2468 328.146V334.126H88.4661V328.146H89.2468ZM96.7457 329.339C97.1117 329.339 97.4377 329.416 97.7237 329.571C98.0097 329.719 98.2356 329.945 98.4014 330.248C98.5673 330.551 98.6502 330.92 98.6502 331.355V334.126H97.8781V331.467C97.8781 330.997 97.7609 330.64 97.5264 330.394C97.2976 330.143 96.9859 330.017 96.5912 330.017C96.1852 330.017 95.862 330.148 95.6218 330.411C95.3816 330.669 95.2615 331.044 95.2615 331.535V334.126H94.4894V331.467C94.4894 330.997 94.3722 330.64 94.1376 330.394C93.9089 330.143 93.5971 330.017 93.2025 330.017C92.7965 330.017 92.4733 330.148 92.2331 330.411C91.9929 330.669 91.8727 331.044 91.8727 331.535V334.126H91.0921V329.425H91.8727V330.103C92.0272 329.856 92.2331 329.668 92.4904 329.536C92.7536 329.405 93.0424 329.339 93.3569 329.339C93.7516 329.339 94.1005 329.427 94.4036 329.605C94.7067 329.782 94.9326 330.042 95.0813 330.386C95.2129 330.054 95.4302 329.796 95.7333 329.613C96.0365 329.431 96.3739 329.339 96.7457 329.339ZM101.226 330.291C101.381 330.023 101.609 329.8 101.913 329.622C102.221 329.439 102.579 329.348 102.985 329.348C103.402 329.348 103.78 329.448 104.117 329.648C104.461 329.848 104.729 330.131 104.924 330.497C105.118 330.857 105.216 331.278 105.216 331.758C105.216 332.233 105.118 332.656 104.924 333.028C104.729 333.4 104.461 333.689 104.117 333.894C103.78 334.1 103.402 334.203 102.985 334.203C102.585 334.203 102.23 334.115 101.921 333.937C101.618 333.755 101.386 333.528 101.226 333.26V336.357H100.446V329.425H101.226V330.291ZM104.418 331.758C104.418 331.404 104.346 331.095 104.203 330.832C104.06 330.568 103.866 330.368 103.62 330.231C103.38 330.094 103.114 330.025 102.822 330.025C102.536 330.025 102.27 330.097 102.024 330.24C101.784 330.377 101.589 330.58 101.441 330.849C101.298 331.112 101.226 331.418 101.226 331.767C101.226 332.121 101.298 332.433 101.441 332.702C101.589 332.965 101.784 333.168 102.024 333.311C102.27 333.448 102.536 333.517 102.822 333.517C103.114 333.517 103.38 333.448 103.62 333.311C103.866 333.168 104.06 332.965 104.203 332.702C104.346 332.433 104.418 332.119 104.418 331.758ZM107.539 330.188C107.676 329.92 107.87 329.711 108.122 329.562C108.379 329.414 108.691 329.339 109.057 329.339V330.145H108.851C107.976 330.145 107.539 330.62 107.539 331.57V334.126H106.758V329.425H107.539V330.188ZM112.523 334.203C112.083 334.203 111.683 334.103 111.322 333.903C110.968 333.703 110.688 333.42 110.482 333.054C110.281 332.682 110.181 332.253 110.181 331.767C110.181 331.286 110.284 330.863 110.49 330.497C110.702 330.126 110.988 329.842 111.348 329.648C111.708 329.448 112.112 329.348 112.558 329.348C113.004 329.348 113.407 329.448 113.767 329.648C114.128 329.842 114.411 330.122 114.617 330.489C114.828 330.855 114.934 331.28 114.934 331.767C114.934 332.253 114.826 332.682 114.608 333.054C114.397 333.42 114.108 333.703 113.742 333.903C113.376 334.103 112.97 334.203 112.523 334.203ZM112.523 333.517C112.804 333.517 113.067 333.451 113.313 333.32C113.559 333.188 113.756 332.991 113.905 332.728C114.059 332.464 114.136 332.144 114.136 331.767C114.136 331.389 114.062 331.069 113.913 330.806C113.765 330.543 113.57 330.349 113.33 330.223C113.09 330.091 112.829 330.025 112.549 330.025C112.263 330.025 112 330.091 111.76 330.223C111.525 330.349 111.337 330.543 111.194 330.806C111.051 331.069 110.979 331.389 110.979 331.767C110.979 332.15 111.048 332.473 111.185 332.736C111.328 333 111.517 333.197 111.751 333.328C111.986 333.454 112.243 333.517 112.523 333.517ZM118.225 333.405L119.684 329.425H120.516L118.672 334.126H117.762L115.918 329.425H116.758L118.225 333.405ZM126.088 331.595C126.088 331.744 126.08 331.901 126.063 332.067H122.305C122.334 332.53 122.491 332.893 122.777 333.157C123.069 333.414 123.42 333.543 123.832 333.543C124.17 333.543 124.45 333.466 124.673 333.311C124.902 333.151 125.062 332.94 125.153 332.676H125.994C125.869 333.128 125.617 333.497 125.239 333.783C124.862 334.063 124.393 334.203 123.832 334.203C123.386 334.203 122.986 334.103 122.631 333.903C122.283 333.703 122.008 333.42 121.808 333.054C121.608 332.682 121.507 332.253 121.507 331.767C121.507 331.28 121.605 330.855 121.799 330.489C121.994 330.122 122.266 329.842 122.614 329.648C122.969 329.448 123.375 329.348 123.832 329.348C124.278 329.348 124.673 329.445 125.016 329.639C125.359 329.834 125.623 330.103 125.805 330.446C125.994 330.783 126.088 331.166 126.088 331.595ZM125.282 331.432C125.282 331.135 125.217 330.881 125.085 330.669C124.953 330.452 124.773 330.289 124.544 330.18C124.321 330.066 124.072 330.008 123.798 330.008C123.403 330.008 123.066 330.134 122.786 330.386C122.511 330.637 122.354 330.986 122.314 331.432H125.282ZM134.485 329.425L131.654 336.339H130.848L131.774 334.075L129.878 329.425H130.745L132.221 333.234L133.679 329.425H134.485ZM137.835 334.203C137.394 334.203 136.994 334.103 136.634 333.903C136.279 333.703 135.999 333.42 135.793 333.054C135.593 332.682 135.493 332.253 135.493 331.767C135.493 331.286 135.596 330.863 135.802 330.497C136.013 330.126 136.3 329.842 136.66 329.648C137.02 329.448 137.423 329.348 137.87 329.348C138.316 329.348 138.719 329.448 139.079 329.648C139.439 329.842 139.723 330.122 139.928 330.489C140.14 330.855 140.246 331.28 140.246 331.767C140.246 332.253 140.137 332.682 139.92 333.054C139.708 333.42 139.419 333.703 139.053 333.903C138.687 334.103 138.281 334.203 137.835 334.203ZM137.835 333.517C138.115 333.517 138.378 333.451 138.624 333.32C138.87 333.188 139.067 332.991 139.216 332.728C139.371 332.464 139.448 332.144 139.448 331.767C139.448 331.389 139.373 331.069 139.225 330.806C139.076 330.543 138.882 330.349 138.642 330.223C138.401 330.091 138.141 330.025 137.861 330.025C137.575 330.025 137.312 330.091 137.072 330.223C136.837 330.349 136.648 330.543 136.505 330.806C136.362 331.069 136.291 331.389 136.291 331.767C136.291 332.15 136.36 332.473 136.497 332.736C136.639 333 136.828 333.197 137.063 333.328C137.297 333.454 137.555 333.517 137.835 333.517ZM145.956 329.425V334.126H145.176V333.431C145.027 333.671 144.819 333.86 144.549 333.997C144.287 334.129 143.995 334.195 143.674 334.195C143.309 334.195 142.979 334.12 142.688 333.972C142.396 333.817 142.164 333.588 141.993 333.285C141.827 332.982 141.744 332.614 141.744 332.179V329.425H142.516V332.076C142.516 332.539 142.634 332.897 142.868 333.148C143.103 333.394 143.423 333.517 143.829 333.517C144.246 333.517 144.575 333.388 144.815 333.131C145.055 332.874 145.176 332.499 145.176 332.007V329.425H145.956ZM152.341 333.405L153.8 329.425H154.632L152.787 334.126H151.878L150.033 329.425H150.874L152.341 333.405ZM157.966 334.203C157.525 334.203 157.125 334.103 156.765 333.903C156.41 333.703 156.13 333.42 155.924 333.054C155.723 332.682 155.624 332.253 155.624 331.767C155.624 331.286 155.727 330.863 155.932 330.497C156.144 330.126 156.43 329.842 156.79 329.648C157.151 329.448 157.554 329.348 158 329.348C158.446 329.348 158.849 329.448 159.21 329.648C159.57 329.842 159.853 330.122 160.059 330.489C160.27 330.855 160.376 331.28 160.376 331.767C160.376 332.253 160.267 332.682 160.05 333.054C159.839 333.42 159.549 333.703 159.184 333.903C158.818 334.103 158.412 334.203 157.966 334.203ZM157.966 333.517C158.245 333.517 158.509 333.451 158.755 333.32C159 333.188 159.198 332.991 159.347 332.728C159.501 332.464 159.579 332.144 159.579 331.767C159.579 331.389 159.504 331.069 159.355 330.806C159.206 330.543 159.012 330.349 158.772 330.223C158.532 330.091 158.271 330.025 157.991 330.025C157.705 330.025 157.442 330.091 157.202 330.223C156.967 330.349 156.778 330.543 156.636 330.806C156.493 331.069 156.421 331.389 156.421 331.767C156.421 332.15 156.49 332.473 156.627 332.736C156.77 333 156.959 333.197 157.194 333.328C157.428 333.454 157.685 333.517 157.966 333.517ZM161.626 331.767C161.626 331.28 161.723 330.857 161.917 330.497C162.112 330.131 162.381 329.848 162.724 329.648C163.073 329.448 163.47 329.348 163.916 329.348C164.494 329.348 164.969 329.487 165.34 329.768C165.718 330.048 165.967 330.437 166.087 330.935H165.246C165.166 330.649 165.008 330.423 164.774 330.257C164.545 330.091 164.259 330.008 163.916 330.008C163.47 330.008 163.11 330.163 162.835 330.471C162.561 330.774 162.423 331.207 162.423 331.767C162.423 332.333 162.561 332.771 162.835 333.079C163.11 333.388 163.47 333.543 163.916 333.543C164.259 333.543 164.545 333.463 164.774 333.303C165.003 333.142 165.16 332.914 165.246 332.616H166.087C165.961 333.097 165.709 333.483 165.332 333.774C164.954 334.06 164.482 334.203 163.916 334.203C163.47 334.203 163.073 334.103 162.724 333.903C162.381 333.703 162.112 333.42 161.917 333.054C161.723 332.687 161.626 332.258 161.626 331.767ZM167.352 331.758C167.352 331.278 167.449 330.857 167.644 330.497C167.838 330.131 168.103 329.848 168.441 329.648C168.785 329.448 169.165 329.348 169.582 329.348C169.994 329.348 170.351 329.436 170.655 329.613C170.958 329.791 171.183 330.014 171.333 330.283V329.425H172.122V334.126H171.333V333.251C171.178 333.526 170.946 333.755 170.638 333.937C170.334 334.115 169.98 334.203 169.574 334.203C169.156 334.203 168.779 334.1 168.441 333.894C168.103 333.689 167.838 333.4 167.644 333.028C167.449 332.656 167.352 332.233 167.352 331.758ZM171.333 331.767C171.333 331.412 171.261 331.104 171.118 330.84C170.975 330.577 170.78 330.377 170.535 330.24C170.294 330.097 170.029 330.025 169.737 330.025C169.445 330.025 169.179 330.094 168.939 330.231C168.699 330.368 168.507 330.568 168.364 330.832C168.221 331.095 168.15 331.404 168.15 331.758C168.15 332.119 168.221 332.433 168.364 332.702C168.507 332.965 168.699 333.168 168.939 333.311C169.179 333.448 169.445 333.517 169.737 333.517C170.029 333.517 170.294 333.448 170.535 333.311C170.78 333.168 170.975 332.965 171.118 332.702C171.261 332.433 171.333 332.121 171.333 331.767ZM174.736 330.3C174.896 330.019 175.131 329.791 175.44 329.613C175.749 329.436 176.1 329.348 176.495 329.348C176.918 329.348 177.298 329.448 177.636 329.648C177.973 329.848 178.239 330.131 178.434 330.497C178.628 330.857 178.726 331.278 178.726 331.758C178.726 332.233 178.628 332.656 178.434 333.028C178.239 333.4 177.971 333.689 177.628 333.894C177.29 334.1 176.912 334.203 176.495 334.203C176.089 334.203 175.732 334.115 175.423 333.937C175.119 333.76 174.891 333.534 174.736 333.26V334.126H173.956V327.778H174.736V330.3ZM177.928 331.758C177.928 331.404 177.856 331.095 177.713 330.832C177.57 330.568 177.375 330.368 177.13 330.231C176.89 330.094 176.624 330.025 176.332 330.025C176.046 330.025 175.78 330.097 175.534 330.24C175.294 330.377 175.099 330.58 174.951 330.849C174.808 331.112 174.736 331.418 174.736 331.767C174.736 332.121 174.808 332.433 174.951 332.702C175.099 332.965 175.294 333.168 175.534 333.311C175.78 333.448 176.046 333.517 176.332 333.517C176.624 333.517 176.89 333.448 177.13 333.311C177.375 333.168 177.57 332.965 177.713 332.702C177.856 332.433 177.928 332.119 177.928 331.758ZM184.437 329.425V334.126H183.657V333.431C183.508 333.671 183.299 333.86 183.03 333.997C182.767 334.129 182.475 334.195 182.155 334.195C181.789 334.195 181.46 334.12 181.169 333.972C180.877 333.817 180.645 333.588 180.474 333.285C180.308 332.982 180.225 332.614 180.225 332.179V329.425H180.997V332.076C180.997 332.539 181.114 332.897 181.349 333.148C181.583 333.394 181.903 333.517 182.31 333.517C182.727 333.517 183.056 333.388 183.296 333.131C183.537 332.874 183.657 332.499 183.657 332.007V329.425H184.437ZM187.051 327.778V334.126H186.27V327.778H187.051ZM188.604 331.758C188.604 331.278 188.702 330.857 188.896 330.497C189.091 330.131 189.356 329.848 189.694 329.648C190.037 329.448 190.418 329.348 190.835 329.348C191.247 329.348 191.604 329.436 191.907 329.613C192.211 329.791 192.436 330.014 192.585 330.283V329.425H193.374V334.126H192.585V333.251C192.43 333.526 192.199 333.755 191.89 333.937C191.587 334.115 191.233 334.203 190.826 334.203C190.409 334.203 190.032 334.1 189.694 333.894C189.356 333.689 189.091 333.4 188.896 333.028C188.702 332.656 188.604 332.233 188.604 331.758ZM192.585 331.767C192.585 331.412 192.514 331.104 192.37 330.84C192.228 330.577 192.033 330.377 191.787 330.24C191.547 330.097 191.281 330.025 190.989 330.025C190.697 330.025 190.432 330.094 190.191 330.231C189.951 330.368 189.76 330.568 189.617 330.832C189.474 331.095 189.402 331.404 189.402 331.758C189.402 332.119 189.474 332.433 189.617 332.702C189.76 332.965 189.951 333.168 190.191 333.311C190.432 333.448 190.697 333.517 190.989 333.517C191.281 333.517 191.547 333.448 191.787 333.311C192.033 333.168 192.228 332.965 192.37 332.702C192.514 332.433 192.585 332.121 192.585 331.767ZM195.989 330.188C196.127 329.92 196.321 329.711 196.573 329.562C196.83 329.414 197.142 329.339 197.508 329.339V330.145H197.302C196.427 330.145 195.989 330.62 195.989 331.57V334.126H195.209V329.425H195.989V330.188ZM202.973 329.425L200.142 336.339H199.335L200.262 334.075L198.366 329.425H199.232L200.708 333.234L202.166 329.425H202.973ZM213.337 329.425L211.87 334.126H211.064L209.931 330.394L208.799 334.126H207.992L206.517 329.425H207.314L208.395 333.371L209.562 329.425H210.36L211.501 333.38L212.565 329.425H213.337ZM215.03 328.661C214.881 328.661 214.755 328.61 214.652 328.507C214.549 328.404 214.498 328.278 214.498 328.129C214.498 327.981 214.549 327.855 214.652 327.752C214.755 327.649 214.881 327.597 215.03 327.597C215.173 327.597 215.293 327.649 215.39 327.752C215.493 327.855 215.544 327.981 215.544 328.129C215.544 328.278 215.493 328.404 215.39 328.507C215.293 328.61 215.173 328.661 215.03 328.661ZM215.407 329.425V334.126H214.626V329.425H215.407ZM218.205 330.068V332.839C218.205 333.068 218.253 333.231 218.351 333.328C218.448 333.42 218.617 333.465 218.857 333.465H219.432V334.126H218.729C218.294 334.126 217.968 334.026 217.751 333.826C217.533 333.626 217.425 333.297 217.425 332.839V330.068H216.815V329.425H217.425V328.241H218.205V329.425H219.432V330.068H218.205ZM223.226 329.339C223.58 329.339 223.901 329.416 224.187 329.571C224.473 329.719 224.696 329.945 224.856 330.248C225.022 330.551 225.105 330.92 225.105 331.355V334.126H224.333V331.467C224.333 330.997 224.215 330.64 223.981 330.394C223.747 330.143 223.426 330.017 223.02 330.017C222.608 330.017 222.28 330.145 222.034 330.403C221.793 330.66 221.673 331.035 221.673 331.527V334.126H220.893V327.778H221.673V330.094C221.828 329.854 222.039 329.668 222.308 329.536C222.583 329.405 222.889 329.339 223.226 329.339ZM231.361 334.203C231.001 334.203 230.677 334.143 230.392 334.023C230.106 333.897 229.879 333.726 229.714 333.508C229.548 333.285 229.456 333.031 229.439 332.745H230.246C230.269 332.979 230.377 333.171 230.572 333.32C230.772 333.468 231.032 333.543 231.352 333.543C231.65 333.543 231.884 333.477 232.056 333.345C232.227 333.214 232.313 333.048 232.313 332.848C232.313 332.642 232.222 332.49 232.039 332.393C231.856 332.29 231.573 332.19 231.189 332.093C230.84 332.001 230.555 331.91 230.331 331.818C230.114 331.721 229.926 331.581 229.765 331.398C229.611 331.209 229.534 330.963 229.534 330.66C229.534 330.42 229.605 330.2 229.748 330C229.891 329.8 230.094 329.642 230.357 329.528C230.621 329.408 230.921 329.348 231.258 329.348C231.779 329.348 232.199 329.479 232.519 329.742C232.839 330.005 233.011 330.366 233.034 330.823H232.253C232.236 330.577 232.136 330.38 231.953 330.231C231.775 330.083 231.535 330.008 231.232 330.008C230.952 330.008 230.729 330.068 230.563 330.188C230.397 330.308 230.314 330.465 230.314 330.66C230.314 330.815 230.363 330.943 230.46 331.046C230.563 331.143 230.689 331.224 230.838 331.286C230.992 331.344 231.204 331.409 231.472 331.484C231.81 331.575 232.084 331.667 232.296 331.758C232.508 331.844 232.688 331.975 232.837 332.153C232.991 332.33 233.071 332.562 233.077 332.848C233.077 333.105 233.006 333.337 232.862 333.543C232.719 333.749 232.517 333.912 232.253 334.032C231.996 334.146 231.698 334.203 231.361 334.203ZM235.097 328.661C234.948 328.661 234.822 328.61 234.719 328.507C234.616 328.404 234.565 328.278 234.565 328.129C234.565 327.981 234.616 327.855 234.719 327.752C234.822 327.649 234.948 327.597 235.097 327.597C235.24 327.597 235.36 327.649 235.457 327.752C235.56 327.855 235.612 327.981 235.612 328.129C235.612 328.278 235.56 328.404 235.457 328.507C235.36 328.61 235.24 328.661 235.097 328.661ZM235.474 329.425V334.126H234.694V329.425H235.474ZM242.973 329.339C243.339 329.339 243.665 329.416 243.951 329.571C244.237 329.719 244.463 329.945 244.629 330.248C244.795 330.551 244.878 330.92 244.878 331.355V334.126H244.106V331.467C244.106 330.997 243.989 330.64 243.754 330.394C243.525 330.143 243.213 330.017 242.819 330.017C242.413 330.017 242.089 330.148 241.849 330.411C241.609 330.669 241.489 331.044 241.489 331.535V334.126H240.717V331.467C240.717 330.997 240.6 330.64 240.365 330.394C240.137 330.143 239.825 330.017 239.43 330.017C239.024 330.017 238.701 330.148 238.46 330.411C238.22 330.669 238.1 331.044 238.1 331.535V334.126H237.319V329.425H238.1V330.103C238.255 329.856 238.46 329.668 238.718 329.536C238.981 329.405 239.27 329.339 239.584 329.339C239.979 329.339 240.328 329.427 240.631 329.605C240.935 329.782 241.16 330.042 241.309 330.386C241.441 330.054 241.658 329.796 241.961 329.613C242.264 329.431 242.602 329.339 242.973 329.339ZM247.454 330.291C247.608 330.023 247.837 329.8 248.14 329.622C248.449 329.439 248.807 329.348 249.213 329.348C249.63 329.348 250.008 329.448 250.345 329.648C250.688 329.848 250.957 330.131 251.152 330.497C251.346 330.857 251.443 331.278 251.443 331.758C251.443 332.233 251.346 332.656 251.152 333.028C250.957 333.4 250.688 333.689 250.345 333.894C250.008 334.1 249.63 334.203 249.213 334.203C248.812 334.203 248.458 334.115 248.149 333.937C247.846 333.755 247.614 333.528 247.454 333.26V336.357H246.673V329.425H247.454V330.291ZM250.645 331.758C250.645 331.404 250.574 331.095 250.431 330.832C250.288 330.568 250.094 330.368 249.848 330.231C249.607 330.094 249.341 330.025 249.05 330.025C248.764 330.025 248.498 330.097 248.252 330.24C248.012 330.377 247.817 330.58 247.668 330.849C247.525 331.112 247.454 331.418 247.454 331.767C247.454 332.121 247.525 332.433 247.668 332.702C247.817 332.965 248.012 333.168 248.252 333.311C248.498 333.448 248.764 333.517 249.05 333.517C249.341 333.517 249.607 333.448 249.848 333.311C250.094 333.168 250.288 332.965 250.431 332.702C250.574 332.433 250.645 332.119 250.645 331.758ZM253.766 327.778V334.126H252.986V327.778H253.766ZM259.901 331.595C259.901 331.744 259.892 331.901 259.875 332.067H256.118C256.147 332.53 256.304 332.893 256.589 333.157C256.881 333.414 257.233 333.543 257.645 333.543C257.982 333.543 258.262 333.466 258.485 333.311C258.714 333.151 258.875 332.94 258.966 332.676H259.807C259.681 333.128 259.429 333.497 259.052 333.783C258.674 334.063 258.206 334.203 257.645 334.203C257.198 334.203 256.799 334.103 256.444 333.903C256.095 333.703 255.821 333.42 255.62 333.054C255.42 332.682 255.32 332.253 255.32 331.767C255.32 331.28 255.417 330.855 255.611 330.489C255.806 330.122 256.078 329.842 256.426 329.648C256.781 329.448 257.187 329.348 257.645 329.348C258.091 329.348 258.485 329.445 258.829 329.639C259.172 329.834 259.435 330.103 259.618 330.446C259.807 330.783 259.901 331.166 259.901 331.595ZM259.094 331.432C259.094 331.135 259.029 330.881 258.897 330.669C258.766 330.452 258.586 330.289 258.357 330.18C258.134 330.066 257.885 330.008 257.61 330.008C257.216 330.008 256.878 330.134 256.598 330.386C256.323 330.637 256.166 330.986 256.126 331.432H259.094ZM164.105 343.646C164.105 343.159 164.202 342.736 164.397 342.376C164.591 342.01 164.86 341.726 165.203 341.527C165.552 341.327 165.949 341.226 166.396 341.226C166.973 341.226 167.448 341.366 167.82 341.647C168.197 341.927 168.446 342.316 168.566 342.813H167.725C167.646 342.528 167.488 342.301 167.254 342.136C167.025 341.97 166.739 341.887 166.396 341.887C165.949 341.887 165.589 342.041 165.315 342.35C165.04 342.653 164.903 343.085 164.903 343.646C164.903 344.212 165.04 344.649 165.315 344.958C165.589 345.267 165.949 345.421 166.396 345.421C166.739 345.421 167.025 345.342 167.254 345.181C167.482 345.021 167.64 344.793 167.725 344.495H168.566C168.44 344.975 168.189 345.361 167.811 345.653C167.434 345.939 166.962 346.082 166.396 346.082C165.949 346.082 165.552 345.982 165.203 345.782C164.86 345.582 164.591 345.299 164.397 344.932C164.202 344.566 164.105 344.137 164.105 343.646ZM170.904 339.656V346.005H170.123V339.656H170.904ZM173.152 340.54C173.003 340.54 172.877 340.488 172.774 340.386C172.672 340.283 172.62 340.157 172.62 340.008C172.62 339.86 172.672 339.734 172.774 339.631C172.877 339.528 173.003 339.476 173.152 339.476C173.294 339.476 173.415 339.528 173.512 339.631C173.615 339.734 173.667 339.86 173.667 340.008C173.667 340.157 173.615 340.283 173.512 340.386C173.415 340.488 173.294 340.54 173.152 340.54ZM173.529 341.303V346.005H172.749V341.303H173.529ZM175.083 343.646C175.083 343.159 175.18 342.736 175.375 342.376C175.569 342.01 175.838 341.726 176.181 341.527C176.53 341.327 176.927 341.226 177.374 341.226C177.951 341.226 178.426 341.366 178.798 341.647C179.175 341.927 179.424 342.316 179.544 342.813H178.703C178.623 342.528 178.466 342.301 178.231 342.136C178.002 341.97 177.717 341.887 177.374 341.887C176.927 341.887 176.567 342.041 176.293 342.35C176.018 342.653 175.881 343.085 175.881 343.646C175.881 344.212 176.018 344.649 176.293 344.958C176.567 345.267 176.927 345.421 177.374 345.421C177.717 345.421 178.002 345.342 178.231 345.181C178.46 345.021 178.617 344.793 178.703 344.495H179.544C179.418 344.975 179.167 345.361 178.789 345.653C178.412 345.939 177.94 346.082 177.374 346.082C176.927 346.082 176.53 345.982 176.181 345.782C175.838 345.582 175.569 345.299 175.375 344.932C175.18 344.566 175.083 344.137 175.083 343.646ZM183.725 346.005L181.881 343.929V346.005H181.1V339.656H181.881V343.388L183.691 341.303H184.781L182.567 343.646L184.789 346.005H183.725Z" fill="black" fill-opacity="0.74"/>
<g filter="url(#filter1_i)">
<path d="M272.295 433.115H76.2961C71.1936 433.115 67.0571 437.252 67.0571 442.354V464.792C67.0571 469.894 71.1936 474.031 76.2961 474.031H272.295C277.398 474.031 281.534 469.894 281.534 464.792V442.354C281.534 437.252 277.398 433.115 272.295 433.115Z" fill="#302CE1"/>
</g>
<path d="M142.71 451.736C142.52 451.387 142.258 451.122 141.926 450.94C141.593 450.758 141.205 450.667 140.762 450.667C140.271 450.667 139.835 450.778 139.455 450.999C139.075 451.221 138.778 451.538 138.564 451.95C138.35 452.361 138.243 452.837 138.243 453.375C138.243 453.929 138.35 454.413 138.564 454.824C138.786 455.236 139.091 455.553 139.479 455.775C139.867 455.996 140.318 456.107 140.833 456.107C141.467 456.107 141.985 455.941 142.389 455.608C142.793 455.268 143.058 454.797 143.185 454.195H140.334V452.924H144.824V454.373C144.713 454.951 144.476 455.486 144.112 455.977C143.747 456.468 143.276 456.864 142.698 457.164C142.128 457.457 141.486 457.604 140.774 457.604C139.974 457.604 139.249 457.426 138.6 457.069C137.958 456.705 137.452 456.202 137.079 455.561C136.715 454.919 136.533 454.191 136.533 453.375C136.533 452.559 136.715 451.831 137.079 451.189C137.452 450.54 137.958 450.037 138.6 449.681C139.249 449.317 139.97 449.134 140.762 449.134C141.696 449.134 142.508 449.364 143.197 449.823C143.886 450.275 144.361 450.912 144.622 451.736H142.71ZM152.885 454.1C152.885 454.337 152.869 454.551 152.837 454.741H148.026C148.066 455.216 148.232 455.589 148.525 455.858C148.818 456.127 149.179 456.262 149.606 456.262C150.224 456.262 150.663 455.996 150.925 455.466H152.718C152.528 456.099 152.164 456.622 151.626 457.034C151.087 457.438 150.426 457.64 149.642 457.64C149.008 457.64 148.438 457.501 147.931 457.224C147.432 456.939 147.04 456.539 146.755 456.024C146.478 455.509 146.339 454.915 146.339 454.242C146.339 453.561 146.478 452.963 146.755 452.449C147.032 451.934 147.42 451.538 147.919 451.261C148.418 450.984 148.992 450.845 149.642 450.845C150.267 450.845 150.826 450.98 151.317 451.249C151.816 451.518 152.2 451.902 152.469 452.401C152.746 452.892 152.885 453.458 152.885 454.1ZM151.162 453.625C151.154 453.197 151 452.856 150.699 452.603C150.398 452.342 150.03 452.211 149.594 452.211C149.182 452.211 148.834 452.338 148.549 452.591C148.272 452.837 148.102 453.181 148.038 453.625H151.162ZM156.748 452.318V455.501C156.748 455.723 156.799 455.885 156.902 455.988C157.013 456.083 157.195 456.131 157.449 456.131H158.221V457.533H157.176C155.774 457.533 155.073 456.852 155.073 455.49V452.318H154.289V450.952H155.073V449.325H156.748V450.952H158.221V452.318H156.748ZM166.535 457.616C165.957 457.616 165.435 457.517 164.967 457.319C164.508 457.121 164.144 456.836 163.874 456.464C163.605 456.091 163.467 455.652 163.459 455.145H165.241C165.264 455.486 165.383 455.755 165.597 455.953C165.819 456.151 166.12 456.25 166.5 456.25C166.888 456.25 167.193 456.159 167.414 455.977C167.636 455.787 167.747 455.541 167.747 455.24C167.747 454.995 167.672 454.793 167.521 454.634C167.371 454.476 167.181 454.353 166.951 454.266C166.729 454.171 166.42 454.068 166.025 453.957C165.486 453.799 165.046 453.644 164.706 453.494C164.373 453.336 164.084 453.102 163.839 452.793C163.601 452.476 163.482 452.057 163.482 451.534C163.482 451.043 163.605 450.615 163.851 450.251C164.096 449.887 164.441 449.61 164.884 449.42C165.328 449.222 165.834 449.123 166.405 449.123C167.26 449.123 167.953 449.332 168.483 449.752C169.022 450.164 169.319 450.742 169.374 451.486H167.545C167.529 451.201 167.406 450.968 167.177 450.786C166.955 450.596 166.658 450.5 166.286 450.5C165.961 450.5 165.7 450.584 165.502 450.75C165.312 450.916 165.217 451.158 165.217 451.475C165.217 451.696 165.288 451.882 165.431 452.033C165.581 452.175 165.763 452.294 165.977 452.389C166.199 452.476 166.508 452.579 166.904 452.698C167.442 452.856 167.882 453.015 168.222 453.173C168.563 453.332 168.856 453.569 169.101 453.886C169.347 454.203 169.469 454.618 169.469 455.133C169.469 455.577 169.355 455.988 169.125 456.369C168.895 456.749 168.559 457.054 168.115 457.283C167.672 457.505 167.145 457.616 166.535 457.616ZM173.56 452.318V455.501C173.56 455.723 173.612 455.885 173.715 455.988C173.826 456.083 174.008 456.131 174.261 456.131H175.033V457.533H173.988C172.586 457.533 171.885 456.852 171.885 455.49V452.318H171.101V450.952H171.885V449.325H173.56V450.952H175.033V452.318H173.56ZM176.514 454.219C176.514 453.553 176.645 452.963 176.906 452.449C177.175 451.934 177.536 451.538 177.987 451.261C178.446 450.984 178.957 450.845 179.519 450.845C180.01 450.845 180.438 450.944 180.802 451.142C181.174 451.34 181.471 451.589 181.693 451.89V450.952H183.368V457.533H181.693V456.571C181.479 456.879 181.182 457.137 180.802 457.343C180.43 457.541 179.998 457.64 179.508 457.64C178.953 457.64 178.446 457.497 177.987 457.212C177.536 456.927 177.175 456.527 176.906 456.012C176.645 455.49 176.514 454.892 176.514 454.219ZM181.693 454.242C181.693 453.838 181.614 453.494 181.456 453.209C181.297 452.916 181.083 452.694 180.814 452.544C180.545 452.385 180.256 452.306 179.947 452.306C179.638 452.306 179.353 452.381 179.092 452.532C178.83 452.682 178.617 452.904 178.45 453.197C178.292 453.482 178.213 453.823 178.213 454.219C178.213 454.615 178.292 454.963 178.45 455.264C178.617 455.557 178.83 455.783 179.092 455.941C179.361 456.099 179.646 456.179 179.947 456.179C180.256 456.179 180.545 456.103 180.814 455.953C181.083 455.794 181.297 455.573 181.456 455.288C181.614 454.995 181.693 454.646 181.693 454.242ZM187.369 451.973C187.582 451.625 187.86 451.352 188.2 451.154C188.549 450.956 188.944 450.857 189.388 450.857V452.603H188.948C188.426 452.603 188.03 452.726 187.761 452.971C187.499 453.217 187.369 453.644 187.369 454.254V457.533H185.706V450.952H187.369V451.973ZM193.157 452.318V455.501C193.157 455.723 193.208 455.885 193.311 455.988C193.422 456.083 193.604 456.131 193.858 456.131H194.63V457.533H193.584C192.183 457.533 191.482 456.852 191.482 455.49V452.318H190.698V450.952H191.482V449.325H193.157V450.952H194.63V452.318H193.157ZM202.656 454.1C202.656 454.337 202.641 454.551 202.609 454.741H197.798C197.838 455.216 198.004 455.589 198.297 455.858C198.59 456.127 198.95 456.262 199.378 456.262C199.996 456.262 200.435 455.996 200.697 455.466H202.49C202.3 456.099 201.936 456.622 201.397 457.034C200.859 457.438 200.198 457.64 199.414 457.64C198.78 457.64 198.21 457.501 197.703 457.224C197.204 456.939 196.812 456.539 196.527 456.024C196.25 455.509 196.111 454.915 196.111 454.242C196.111 453.561 196.25 452.963 196.527 452.449C196.804 451.934 197.192 451.538 197.691 451.261C198.19 450.984 198.764 450.845 199.414 450.845C200.039 450.845 200.598 450.98 201.089 451.249C201.587 451.518 201.971 451.902 202.241 452.401C202.518 452.892 202.656 453.458 202.656 454.1ZM200.934 453.625C200.926 453.197 200.772 452.856 200.471 452.603C200.17 452.342 199.802 452.211 199.366 452.211C198.954 452.211 198.606 452.338 198.321 452.591C198.044 452.837 197.873 453.181 197.81 453.625H200.934ZM204.155 454.219C204.155 453.553 204.286 452.963 204.547 452.449C204.816 451.934 205.181 451.538 205.64 451.261C206.099 450.984 206.61 450.845 207.172 450.845C207.6 450.845 208.008 450.94 208.396 451.13C208.784 451.312 209.093 451.558 209.322 451.867V448.742H211.009V457.533H209.322V456.559C209.117 456.883 208.827 457.145 208.455 457.343C208.083 457.541 207.651 457.64 207.161 457.64C206.606 457.64 206.099 457.497 205.64 457.212C205.181 456.927 204.816 456.527 204.547 456.012C204.286 455.49 204.155 454.892 204.155 454.219ZM209.334 454.242C209.334 453.838 209.255 453.494 209.097 453.209C208.938 452.916 208.725 452.694 208.455 452.544C208.186 452.385 207.897 452.306 207.588 452.306C207.279 452.306 206.994 452.381 206.733 452.532C206.472 452.682 206.258 452.904 206.091 453.197C205.933 453.482 205.854 453.823 205.854 454.219C205.854 454.615 205.933 454.963 206.091 455.264C206.258 455.557 206.472 455.783 206.733 455.941C207.002 456.099 207.287 456.179 207.588 456.179C207.897 456.179 208.186 456.103 208.455 455.953C208.725 455.794 208.938 455.573 209.097 455.288C209.255 454.995 209.334 454.646 209.334 454.242Z" fill="white"/>
</g>
<defs>
<filter id="filter0_dii" x="0" y="0" width="427.271" height="715" filterUnits="userSpaceOnUse" color-interpolation-filters="sRGB">
<feFlood flood-opacity="0" result="BackgroundImageFix"/>
<feColorMatrix in="SourceAlpha" type="matrix" values="0 0 0 0 0 0 0 0 0 0 0 0 0 0 0 0 0 0 127 0" result="hardAlpha"/>
<feOffset dx="40" dy="60"/>
<feGaussianBlur stdDeviation="40"/>
<feComposite in2="hardAlpha" operator="out"/>
<feColorMatrix type="matrix" values="0 0 0 0 0.60276 0 0 0 0 0.648319 0 0 0 0 0.8875 0 0 0 0.25 0"/>
<feBlend mode="normal" in2="BackgroundImageFix" result="effect1_dropShadow"/>
<feBlend mode="normal" in="SourceGraphic" in2="effect1_dropShadow" result="shape"/>
<feColorMatrix in="SourceAlpha" type="matrix" values="0 0 0 0 0 0 0 0 0 0 0 0 0 0 0 0 0 0 127 0" result="hardAlpha"/>
<feOffset dx="10" dy="2"/>
<feGaussianBlur stdDeviation="10"/>
<feComposite in2="hardAlpha" operator="arithmetic" k2="-1" k3="1"/>
<feColorMatrix type="matrix" values="0 0 0 0 1 0 0 0 0 1 0 0 0 0 1 0 0 0 0.25 0"/>
<feBlend mode="normal" in2="shape" result="effect2_innerShadow"/>
<feColorMatrix in="SourceAlpha" type="matrix" values="0 0 0 0 0 0 0 0 0 0 0 0 0 0 0 0 0 0 127 0" result="hardAlpha"/>
<feOffset dx="-2" dy="-10"/>
<feGaussianBlur stdDeviation="10"/>
<feComposite in2="hardAlpha" operator="arithmetic" k2="-1" k3="1"/>
<feColorMatrix type="matrix" values="0 0 0 0 0.603194 0 0 0 0 0.64135 0 0 0 0 0.841667 0 0 0 0.25 0"/>
<feBlend mode="normal" in2="effect2_innerShadow" result="effect3_innerShadow"/>
</filter>
<filter id="filter1_i" x="67.0571" y="433.115" width="214.477" height="44.9156" filterUnits="userSpaceOnUse" color-interpolation-filters="sRGB">
<feFlood flood-opacity="0" result="BackgroundImageFix"/>
<feBlend mode="normal" in="SourceGraphic" in2="BackgroundImageFix" result="shape"/>
<feColorMatrix in="SourceAlpha" type="matrix" values="0 0 0 0 0 0 0 0 0 0 0 0 0 0 0 0 0 0 127 0" result="hardAlpha"/>
<feOffset dy="4"/>
<feGaussianBlur stdDeviation="2"/>
<feComposite in2="hardAlpha" operator="arithmetic" k2="-1" k3="1"/>
<feColorMatrix type="matrix" values="0 0 0 0 0 0 0 0 0 0 0 0 0 0 0 0 0 0 0.25 0"/>
<feBlend mode="normal" in2="shape" result="effect1_innerShadow"/>
</filter>
<clipPath id="clip0">
<rect width="247.473" height="400.577" fill="white" transform="translate(49.8989 107.771)"/>
</clipPath>
</defs>
</svg>
