<svg width="457" height="775" viewBox="0 0 457 775" fill="none" xmlns="http://www.w3.org/2000/svg">
<g filter="url(#filter0_dii)">
<rect x="40" y="20" width="296.165" height="615" rx="50" fill="#FBFBFB"/>
</g>
<rect x="50.9692" y="31.7004" width="271.302" height="589.405" rx="40" fill="white"/>
<g clip-path="url(#clip0)">
<path d="M325.196 6.10596H50.9692V599.899H325.196V6.10596Z" fill="white"/>
<path d="M144.598 152.679L142.032 161.867H139.86L138.135 155.325L136.332 161.867L134.173 161.88L131.699 152.679H133.673L135.292 159.814L137.161 152.679H139.215L140.979 159.774L142.611 152.679H144.598ZM153.37 158.063C153.37 158.326 153.352 158.563 153.317 158.774H147.986C148.03 159.3 148.215 159.713 148.539 160.011C148.864 160.309 149.263 160.459 149.737 160.459C150.421 160.459 150.909 160.165 151.198 159.577H153.186C152.975 160.279 152.571 160.858 151.975 161.314C151.378 161.762 150.645 161.985 149.777 161.985C149.074 161.985 148.443 161.832 147.881 161.525C147.328 161.209 146.894 160.766 146.578 160.195C146.271 159.625 146.117 158.967 146.117 158.221C146.117 157.466 146.271 156.804 146.578 156.233C146.885 155.663 147.315 155.224 147.868 154.917C148.421 154.61 149.057 154.456 149.777 154.456C150.47 154.456 151.088 154.605 151.632 154.904C152.185 155.202 152.611 155.628 152.909 156.181C153.216 156.725 153.37 157.352 153.37 158.063ZM151.461 157.536C151.453 157.063 151.281 156.685 150.948 156.404C150.615 156.115 150.206 155.97 149.724 155.97C149.268 155.97 148.881 156.11 148.566 156.391C148.258 156.663 148.07 157.045 148 157.536H151.461ZM157.348 152.126V161.867H155.505V152.126H157.348ZM159.485 158.221C159.485 157.466 159.638 156.808 159.946 156.246C160.253 155.676 160.678 155.237 161.222 154.93C161.766 154.614 162.389 154.456 163.092 154.456C163.995 154.456 164.741 154.684 165.329 155.141C165.926 155.588 166.325 156.22 166.527 157.036H164.539C164.434 156.72 164.254 156.475 164 156.299C163.754 156.115 163.447 156.023 163.078 156.023C162.552 156.023 162.135 156.216 161.828 156.602C161.521 156.979 161.367 157.519 161.367 158.221C161.367 158.914 161.521 159.454 161.828 159.84C162.135 160.217 162.552 160.406 163.078 160.406C163.824 160.406 164.311 160.072 164.539 159.406H166.527C166.325 160.195 165.926 160.823 165.329 161.288C164.732 161.753 163.987 161.985 163.092 161.985C162.389 161.985 161.766 161.832 161.222 161.525C160.678 161.209 160.253 160.77 159.946 160.208C159.638 159.638 159.485 158.976 159.485 158.221ZM171.905 161.985C171.203 161.985 170.571 161.832 170.009 161.525C169.448 161.209 169.005 160.766 168.68 160.195C168.364 159.625 168.206 158.967 168.206 158.221C168.206 157.475 168.368 156.817 168.693 156.246C169.027 155.676 169.478 155.237 170.049 154.93C170.619 154.614 171.255 154.456 171.957 154.456C172.659 154.456 173.296 154.614 173.866 154.93C174.436 155.237 174.884 155.676 175.209 156.246C175.542 156.817 175.709 157.475 175.709 158.221C175.709 158.967 175.538 159.625 175.196 160.195C174.862 160.766 174.406 161.209 173.827 161.525C173.256 161.832 172.616 161.985 171.905 161.985ZM171.905 160.38C172.238 160.38 172.55 160.301 172.839 160.143C173.138 159.976 173.375 159.73 173.55 159.406C173.726 159.081 173.813 158.686 173.813 158.221C173.813 157.528 173.629 156.997 173.261 156.628C172.901 156.251 172.458 156.062 171.931 156.062C171.405 156.062 170.961 156.251 170.602 156.628C170.251 156.997 170.075 157.528 170.075 158.221C170.075 158.914 170.246 159.449 170.589 159.827C170.94 160.195 171.378 160.38 171.905 160.38ZM186.906 154.469C187.801 154.469 188.521 154.746 189.065 155.299C189.618 155.843 189.894 156.606 189.894 157.589V161.867H188.051V157.839C188.051 157.269 187.907 156.834 187.617 156.536C187.327 156.229 186.932 156.075 186.432 156.075C185.932 156.075 185.533 156.229 185.234 156.536C184.945 156.834 184.8 157.269 184.8 157.839V161.867H182.957V157.839C182.957 157.269 182.812 156.834 182.523 156.536C182.233 156.229 181.838 156.075 181.338 156.075C180.829 156.075 180.426 156.229 180.127 156.536C179.838 156.834 179.693 157.269 179.693 157.839V161.867H177.85V154.575H179.693V155.457C179.93 155.15 180.233 154.908 180.601 154.733C180.978 154.557 181.391 154.469 181.838 154.469C182.409 154.469 182.918 154.592 183.365 154.838C183.813 155.075 184.159 155.417 184.405 155.865C184.642 155.444 184.984 155.106 185.432 154.851C185.888 154.597 186.38 154.469 186.906 154.469ZM199.212 158.063C199.212 158.326 199.194 158.563 199.159 158.774H193.828C193.872 159.3 194.057 159.713 194.381 160.011C194.706 160.309 195.105 160.459 195.579 160.459C196.263 160.459 196.751 160.165 197.04 159.577H199.028C198.817 160.279 198.413 160.858 197.817 161.314C197.22 161.762 196.487 161.985 195.618 161.985C194.916 161.985 194.285 161.832 193.723 161.525C193.17 161.209 192.736 160.766 192.42 160.195C192.113 159.625 191.959 158.967 191.959 158.221C191.959 157.466 192.113 156.804 192.42 156.233C192.727 155.663 193.157 155.224 193.71 154.917C194.263 154.61 194.899 154.456 195.618 154.456C196.312 154.456 196.93 154.605 197.474 154.904C198.027 155.202 198.453 155.628 198.751 156.181C199.058 156.725 199.212 157.352 199.212 158.063ZM197.303 157.536C197.295 157.063 197.123 156.685 196.79 156.404C196.457 156.115 196.048 155.97 195.566 155.97C195.11 155.97 194.723 156.11 194.408 156.391C194.1 156.663 193.912 157.045 193.842 157.536H197.303ZM210.485 157.155C211.003 157.251 211.429 157.51 211.762 157.931C212.096 158.353 212.262 158.835 212.262 159.379C212.262 159.871 212.139 160.305 211.894 160.682C211.657 161.051 211.31 161.34 210.854 161.551C210.398 161.762 209.858 161.867 209.235 161.867H205.273V152.679H209.064C209.687 152.679 210.222 152.78 210.67 152.982C211.126 153.184 211.468 153.465 211.696 153.824C211.933 154.184 212.052 154.592 212.052 155.049C212.052 155.584 211.907 156.031 211.617 156.391C211.336 156.751 210.959 157.006 210.485 157.155ZM207.116 156.47H208.8C209.239 156.47 209.577 156.374 209.814 156.181C210.051 155.979 210.169 155.694 210.169 155.325C210.169 154.956 210.051 154.671 209.814 154.469C209.577 154.268 209.239 154.167 208.8 154.167H207.116V156.47ZM208.972 160.366C209.419 160.366 209.766 160.261 210.011 160.051C210.266 159.84 210.393 159.542 210.393 159.155C210.393 158.761 210.261 158.453 209.998 158.234C209.735 158.006 209.38 157.892 208.932 157.892H207.116V160.366H208.972ZM214.047 158.195C214.047 157.457 214.191 156.804 214.481 156.233C214.779 155.663 215.179 155.224 215.679 154.917C216.188 154.61 216.754 154.456 217.377 154.456C217.921 154.456 218.395 154.566 218.798 154.785C219.211 155.005 219.54 155.281 219.786 155.615V154.575H221.642V161.867H219.786V160.801C219.549 161.143 219.22 161.428 218.798 161.656C218.386 161.876 217.908 161.985 217.364 161.985C216.749 161.985 216.188 161.828 215.679 161.512C215.179 161.196 214.779 160.753 214.481 160.182C214.191 159.603 214.047 158.94 214.047 158.195ZM219.786 158.221C219.786 157.773 219.698 157.392 219.522 157.076C219.347 156.751 219.11 156.505 218.812 156.339C218.513 156.163 218.193 156.075 217.851 156.075C217.508 156.075 217.192 156.159 216.903 156.325C216.613 156.492 216.376 156.738 216.192 157.063C216.017 157.378 215.929 157.756 215.929 158.195C215.929 158.633 216.017 159.019 216.192 159.353C216.376 159.678 216.613 159.928 216.903 160.103C217.201 160.279 217.517 160.366 217.851 160.366C218.193 160.366 218.513 160.283 218.812 160.116C219.11 159.941 219.347 159.695 219.522 159.379C219.698 159.055 219.786 158.668 219.786 158.221ZM223.758 158.221C223.758 157.466 223.911 156.808 224.219 156.246C224.526 155.676 224.951 155.237 225.495 154.93C226.039 154.614 226.662 154.456 227.364 154.456C228.268 154.456 229.014 154.684 229.602 155.141C230.199 155.588 230.598 156.22 230.8 157.036H228.812C228.707 156.72 228.527 156.475 228.273 156.299C228.027 156.115 227.72 156.023 227.351 156.023C226.825 156.023 226.408 156.216 226.101 156.602C225.794 156.979 225.64 157.519 225.64 158.221C225.64 158.914 225.794 159.454 226.101 159.84C226.408 160.217 226.825 160.406 227.351 160.406C228.097 160.406 228.584 160.072 228.812 159.406H230.8C230.598 160.195 230.199 160.823 229.602 161.288C229.005 161.753 228.26 161.985 227.364 161.985C226.662 161.985 226.039 161.832 225.495 161.525C224.951 161.209 224.526 160.77 224.219 160.208C223.911 159.638 223.758 158.976 223.758 158.221ZM237.257 161.867L234.783 158.761V161.867H232.94V152.126H234.783V157.668L237.231 154.575H239.626L236.415 158.234L239.653 161.867H237.257ZM243.798 152.521L243.588 158.879H242.035L241.811 152.521H243.798ZM242.851 161.959C242.517 161.959 242.241 161.858 242.021 161.656C241.811 161.446 241.705 161.187 241.705 160.88C241.705 160.573 241.811 160.318 242.021 160.116C242.241 159.906 242.517 159.8 242.851 159.8C243.175 159.8 243.443 159.906 243.654 160.116C243.864 160.318 243.969 160.573 243.969 160.88C243.969 161.187 243.864 161.446 243.654 161.656C243.443 161.858 243.175 161.959 242.851 161.959Z" fill="black" fill-opacity="0.75"/>
<path d="M146.63 458.94V459.698H143.528V462.104H146.046V462.862H143.528V466.076H142.596V458.94H146.63ZM150.816 466.168C150.291 466.168 149.812 466.049 149.382 465.81C148.96 465.571 148.625 465.233 148.379 464.796C148.141 464.353 148.021 463.841 148.021 463.261C148.021 462.687 148.144 462.182 148.389 461.746C148.642 461.302 148.983 460.964 149.413 460.732C149.843 460.493 150.324 460.374 150.857 460.374C151.389 460.374 151.87 460.493 152.3 460.732C152.73 460.964 153.068 461.299 153.314 461.735C153.567 462.172 153.693 462.681 153.693 463.261C153.693 463.841 153.563 464.353 153.303 464.796C153.051 465.233 152.707 465.571 152.269 465.81C151.833 466.049 151.348 466.168 150.816 466.168ZM150.816 465.349C151.151 465.349 151.464 465.271 151.758 465.114C152.052 464.957 152.287 464.721 152.464 464.407C152.648 464.094 152.74 463.711 152.74 463.261C152.74 462.81 152.652 462.428 152.474 462.114C152.297 461.8 152.065 461.568 151.778 461.418C151.491 461.261 151.181 461.183 150.846 461.183C150.506 461.183 150.191 461.261 149.905 461.418C149.625 461.568 149.4 461.8 149.229 462.114C149.058 462.428 148.973 462.81 148.973 463.261C148.973 463.718 149.055 464.104 149.219 464.418C149.39 464.731 149.615 464.967 149.894 465.124C150.174 465.274 150.481 465.349 150.816 465.349ZM156.463 461.377C156.627 461.056 156.86 460.807 157.159 460.63C157.467 460.452 157.839 460.364 158.275 460.364V461.326H158.03C156.985 461.326 156.463 461.893 156.463 463.025V466.076H155.532V460.466H156.463V461.377ZM162.279 460.374C162.764 460.374 163.187 460.48 163.549 460.691C163.917 460.902 164.19 461.169 164.368 461.49V460.466H165.31V466.199C165.31 466.711 165.201 467.165 164.982 467.561C164.763 467.964 164.45 468.277 164.04 468.503C163.637 468.728 163.166 468.84 162.627 468.84C161.89 468.84 161.276 468.666 160.784 468.318C160.293 467.97 160.003 467.496 159.914 466.895H160.836C160.938 467.237 161.149 467.51 161.47 467.714C161.791 467.926 162.177 468.032 162.627 468.032C163.139 468.032 163.555 467.871 163.876 467.55C164.204 467.229 164.368 466.779 164.368 466.199V465.022C164.183 465.349 163.911 465.622 163.549 465.841C163.187 466.059 162.764 466.168 162.279 466.168C161.781 466.168 161.327 466.046 160.917 465.8C160.515 465.554 160.197 465.21 159.965 464.766C159.734 464.322 159.617 463.817 159.617 463.251C159.617 462.677 159.734 462.176 159.965 461.746C160.197 461.309 160.515 460.971 160.917 460.732C161.327 460.493 161.781 460.374 162.279 460.374ZM164.368 463.261C164.368 462.837 164.282 462.469 164.112 462.155C163.941 461.841 163.709 461.602 163.416 461.438C163.129 461.268 162.811 461.183 162.463 461.183C162.115 461.183 161.798 461.264 161.511 461.428C161.225 461.592 160.996 461.831 160.825 462.145C160.655 462.459 160.569 462.827 160.569 463.251C160.569 463.681 160.655 464.056 160.825 464.377C160.996 464.69 161.225 464.933 161.511 465.104C161.798 465.267 162.115 465.349 162.463 465.349C162.811 465.349 163.129 465.267 163.416 465.104C163.709 464.933 163.941 464.69 164.112 464.377C164.282 464.056 164.368 463.684 164.368 463.261ZM169.945 466.168C169.419 466.168 168.942 466.049 168.512 465.81C168.088 465.571 167.754 465.233 167.508 464.796C167.269 464.353 167.15 463.841 167.15 463.261C167.15 462.687 167.273 462.182 167.519 461.746C167.771 461.302 168.112 460.964 168.542 460.732C168.972 460.493 169.454 460.374 169.986 460.374C170.518 460.374 171 460.493 171.43 460.732C171.86 460.964 172.197 461.299 172.443 461.735C172.695 462.172 172.822 462.681 172.822 463.261C172.822 463.841 172.692 464.353 172.433 464.796C172.181 465.233 171.835 465.571 171.399 465.81C170.962 466.049 170.477 466.168 169.945 466.168ZM169.945 465.349C170.279 465.349 170.594 465.271 170.887 465.114C171.18 464.957 171.416 464.721 171.593 464.407C171.778 464.094 171.87 463.711 171.87 463.261C171.87 462.81 171.781 462.428 171.604 462.114C171.426 461.8 171.194 461.568 170.907 461.418C170.621 461.261 170.31 461.183 169.976 461.183C169.634 461.183 169.321 461.261 169.034 461.418C168.754 461.568 168.529 461.8 168.358 462.114C168.188 462.428 168.102 462.81 168.102 463.261C168.102 463.718 168.184 464.104 168.348 464.418C168.518 464.731 168.744 464.967 169.024 465.124C169.304 465.274 169.611 465.349 169.945 465.349ZM175.797 461.234V464.541C175.797 464.813 175.855 465.008 175.971 465.124C176.088 465.233 176.289 465.288 176.576 465.288H177.261V466.076H176.422C175.903 466.076 175.514 465.957 175.255 465.718C174.995 465.479 174.866 465.087 174.866 464.541V461.234H174.139V460.466H174.866V459.053H175.797V460.466H177.261V461.234H175.797ZM187.119 461.029C187.119 461.623 186.914 462.118 186.505 462.513C186.102 462.902 185.485 463.097 184.652 463.097H183.28V466.076H182.348V458.94H184.652C185.457 458.94 186.068 459.135 186.484 459.524C186.908 459.913 187.119 460.415 187.119 461.029ZM184.652 462.329C185.17 462.329 185.553 462.217 185.798 461.991C186.044 461.766 186.167 461.445 186.167 461.029C186.167 460.149 185.662 459.708 184.652 459.708H183.28V462.329H184.652ZM188.544 463.251C188.544 462.677 188.659 462.176 188.892 461.746C189.123 461.309 189.441 460.971 189.844 460.732C190.253 460.493 190.707 460.374 191.205 460.374C191.697 460.374 192.123 460.48 192.485 460.691C192.846 460.902 193.116 461.169 193.294 461.49V460.466H194.236V466.076H193.294V465.032C193.11 465.36 192.833 465.632 192.465 465.851C192.103 466.062 191.679 466.168 191.195 466.168C190.696 466.168 190.246 466.046 189.844 465.8C189.441 465.554 189.123 465.21 188.892 464.766C188.659 464.322 188.544 463.817 188.544 463.251ZM193.294 463.261C193.294 462.837 193.208 462.469 193.038 462.155C192.867 461.841 192.635 461.602 192.342 461.438C192.055 461.268 191.738 461.183 191.39 461.183C191.042 461.183 190.724 461.264 190.437 461.428C190.151 461.592 189.922 461.831 189.752 462.145C189.58 462.459 189.496 462.827 189.496 463.251C189.496 463.681 189.58 464.056 189.752 464.377C189.922 464.69 190.151 464.933 190.437 465.104C190.724 465.267 191.042 465.349 191.39 465.349C191.738 465.349 192.055 465.267 192.342 465.104C192.635 464.933 192.867 464.69 193.038 464.377C193.208 464.056 193.294 463.684 193.294 463.261ZM198.41 466.168C197.98 466.168 197.594 466.097 197.253 465.953C196.912 465.803 196.642 465.599 196.444 465.339C196.247 465.073 196.137 464.769 196.117 464.428H197.079C197.107 464.708 197.236 464.936 197.468 465.114C197.707 465.292 198.018 465.38 198.4 465.38C198.755 465.38 199.034 465.302 199.239 465.145C199.444 464.987 199.546 464.79 199.546 464.551C199.546 464.305 199.437 464.124 199.219 464.008C199.001 463.885 198.663 463.766 198.205 463.65C197.789 463.541 197.447 463.431 197.181 463.322C196.922 463.206 196.697 463.039 196.506 462.821C196.321 462.595 196.229 462.302 196.229 461.94C196.229 461.653 196.315 461.391 196.485 461.152C196.656 460.913 196.898 460.725 197.212 460.589C197.526 460.445 197.885 460.374 198.287 460.374C198.909 460.374 199.41 460.531 199.792 460.845C200.174 461.158 200.379 461.588 200.406 462.135H199.475C199.454 461.841 199.335 461.606 199.116 461.428C198.905 461.251 198.618 461.162 198.256 461.162C197.922 461.162 197.656 461.234 197.458 461.377C197.26 461.52 197.161 461.708 197.161 461.94C197.161 462.124 197.219 462.278 197.335 462.401C197.458 462.517 197.608 462.612 197.785 462.687C197.97 462.756 198.223 462.834 198.543 462.923C198.946 463.032 199.273 463.142 199.526 463.251C199.779 463.353 199.994 463.51 200.171 463.722C200.355 463.933 200.451 464.209 200.457 464.551C200.457 464.858 200.373 465.134 200.201 465.38C200.031 465.626 199.789 465.82 199.475 465.964C199.167 466.1 198.813 466.168 198.41 466.168ZM204.373 466.168C203.943 466.168 203.558 466.097 203.216 465.953C202.875 465.803 202.606 465.599 202.408 465.339C202.21 465.073 202.101 464.769 202.08 464.428H203.042C203.069 464.708 203.2 464.936 203.431 465.114C203.671 465.292 203.981 465.38 204.363 465.38C204.718 465.38 204.998 465.302 205.203 465.145C205.407 464.987 205.51 464.79 205.51 464.551C205.51 464.305 205.401 464.124 205.182 464.008C204.963 463.885 204.626 463.766 204.169 463.65C203.752 463.541 203.411 463.431 203.145 463.322C202.885 463.206 202.66 463.039 202.469 462.821C202.285 462.595 202.193 462.302 202.193 461.94C202.193 461.653 202.278 461.391 202.449 461.152C202.619 460.913 202.862 460.725 203.176 460.589C203.489 460.445 203.848 460.374 204.25 460.374C204.871 460.374 205.373 460.531 205.755 460.845C206.138 461.158 206.343 461.588 206.37 462.135H205.438C205.418 461.841 205.298 461.606 205.08 461.428C204.868 461.251 204.582 461.162 204.22 461.162C203.886 461.162 203.619 461.234 203.421 461.377C203.223 461.52 203.124 461.708 203.124 461.94C203.124 462.124 203.182 462.278 203.298 462.401C203.421 462.517 203.571 462.612 203.749 462.687C203.933 462.756 204.185 462.834 204.506 462.923C204.909 463.032 205.237 463.142 205.489 463.251C205.742 463.353 205.957 463.51 206.134 463.722C206.319 463.933 206.414 464.209 206.421 464.551C206.421 464.858 206.335 465.134 206.165 465.38C205.995 465.626 205.752 465.82 205.438 465.964C205.131 466.1 204.776 466.168 204.373 466.168ZM215.824 460.466L214.073 466.076H213.111L211.759 461.623L210.408 466.076H209.445L207.685 460.466H208.637L209.927 465.175L211.319 460.466H212.271L213.633 465.186L214.902 460.466H215.824ZM219.81 466.168C219.284 466.168 218.806 466.049 218.376 465.81C217.953 465.571 217.619 465.233 217.373 464.796C217.134 464.353 217.015 463.841 217.015 463.261C217.015 462.687 217.138 462.182 217.383 461.746C217.636 461.302 217.977 460.964 218.407 460.732C218.837 460.493 219.318 460.374 219.851 460.374C220.383 460.374 220.864 460.493 221.294 460.732C221.724 460.964 222.062 461.299 222.308 461.735C222.56 462.172 222.687 462.681 222.687 463.261C222.687 463.841 222.556 464.353 222.298 464.796C222.045 465.233 221.7 465.571 221.264 465.81C220.826 466.049 220.342 466.168 219.81 466.168ZM219.81 465.349C220.144 465.349 220.458 465.271 220.752 465.114C221.045 464.957 221.28 464.721 221.458 464.407C221.642 464.094 221.734 463.711 221.734 463.261C221.734 462.81 221.645 462.428 221.468 462.114C221.291 461.8 221.059 461.568 220.772 461.418C220.485 461.261 220.175 461.183 219.84 461.183C219.499 461.183 219.185 461.261 218.899 461.418C218.619 461.568 218.393 461.8 218.223 462.114C218.052 462.428 217.967 462.81 217.967 463.261C217.967 463.718 218.049 464.104 218.213 464.418C218.383 464.731 218.608 464.967 218.888 465.124C219.168 465.274 219.475 465.349 219.81 465.349ZM225.457 461.377C225.621 461.056 225.853 460.807 226.154 460.63C226.461 460.452 226.832 460.364 227.269 460.364V461.326H227.024C225.98 461.326 225.457 461.893 225.457 463.025V466.076H224.526V460.466H225.457V461.377ZM228.611 463.251C228.611 462.677 228.727 462.176 228.959 461.746C229.191 461.309 229.509 460.971 229.911 460.732C230.32 460.493 230.778 460.374 231.283 460.374C231.72 460.374 232.126 460.476 232.501 460.681C232.877 460.879 233.164 461.142 233.361 461.469V458.5H234.303V466.076H233.361V465.022C233.177 465.356 232.904 465.632 232.542 465.851C232.181 466.062 231.757 466.168 231.272 466.168C230.774 466.168 230.32 466.046 229.911 465.8C229.509 465.554 229.191 465.21 228.959 464.766C228.727 464.322 228.611 463.817 228.611 463.251ZM233.361 463.261C233.361 462.837 233.276 462.469 233.105 462.155C232.935 461.841 232.703 461.602 232.409 461.438C232.122 461.268 231.805 461.183 231.457 461.183C231.109 461.183 230.791 461.264 230.505 461.428C230.218 461.592 229.99 461.831 229.819 462.145C229.648 462.459 229.563 462.827 229.563 463.251C229.563 463.681 229.648 464.056 229.819 464.377C229.99 464.69 230.218 464.933 230.505 465.104C230.791 465.267 231.109 465.349 231.457 465.349C231.805 465.349 232.122 465.267 232.409 465.104C232.703 464.933 232.935 464.69 233.105 464.377C233.276 464.056 233.361 463.684 233.361 463.261Z" fill="#50C2C9"/>
<path d="M98.5912 554.737C99.3693 554.737 100.042 554.884 100.608 555.177C101.181 555.464 101.618 555.877 101.919 556.416C102.226 556.955 102.379 557.59 102.379 558.32C102.379 559.051 102.226 559.686 101.919 560.225C101.618 560.757 101.181 561.166 100.608 561.453C100.042 561.733 99.3693 561.873 98.5912 561.873H96.3696V554.737H98.5912ZM98.5912 561.105C99.5126 561.105 100.216 560.863 100.7 560.378C101.185 559.887 101.427 559.201 101.427 558.32C101.427 557.433 101.181 556.74 100.69 556.242C100.205 555.744 99.5058 555.495 98.5912 555.495H97.3013V561.105H98.5912ZM106.669 561.965C106.144 561.965 105.666 561.846 105.236 561.607C104.813 561.368 104.478 561.03 104.233 560.593C103.994 560.149 103.874 559.637 103.874 559.057C103.874 558.484 103.997 557.979 104.243 557.542C104.495 557.098 104.837 556.761 105.267 556.529C105.697 556.29 106.178 556.17 106.71 556.17C107.243 556.17 107.724 556.29 108.154 556.529C108.584 556.761 108.922 557.095 109.167 557.532C109.42 557.969 109.546 558.478 109.546 559.057C109.546 559.637 109.416 560.149 109.157 560.593C108.905 561.03 108.56 561.368 108.123 561.607C107.686 561.846 107.202 561.965 106.669 561.965ZM106.669 561.146C107.004 561.146 107.318 561.068 107.611 560.911C107.905 560.753 108.14 560.518 108.318 560.204C108.502 559.89 108.594 559.508 108.594 559.057C108.594 558.607 108.505 558.225 108.328 557.911C108.15 557.597 107.918 557.365 107.632 557.215C107.345 557.057 107.034 556.979 106.7 556.979C106.359 556.979 106.045 557.057 105.758 557.215C105.478 557.365 105.253 557.597 105.082 557.911C104.912 558.225 104.826 558.607 104.826 559.057C104.826 559.515 104.908 559.901 105.072 560.214C105.243 560.528 105.468 560.764 105.748 560.921C106.028 561.071 106.335 561.146 106.669 561.146ZM114.119 556.16C114.801 556.16 115.354 556.369 115.777 556.785C116.2 557.194 116.412 557.788 116.412 558.566V561.873H115.491V558.699C115.491 558.14 115.351 557.713 115.071 557.419C114.791 557.119 114.409 556.969 113.924 556.969C113.433 556.969 113.04 557.123 112.747 557.43C112.46 557.737 112.317 558.184 112.317 558.771V561.873H111.385V556.263H112.317V557.061C112.501 556.774 112.75 556.553 113.064 556.396C113.385 556.238 113.737 556.16 114.119 556.16ZM118.691 554.737H119.725L118.743 557.061H118.087L118.691 554.737ZM122.538 557.03V560.337C122.538 560.61 122.596 560.804 122.712 560.921C122.828 561.03 123.03 561.085 123.316 561.085H124.002V561.873H123.163C122.644 561.873 122.255 561.754 121.996 561.515C121.736 561.275 121.607 560.883 121.607 560.337V557.03H120.88V556.263H121.607V554.85H122.538V556.263H124.002V557.03H122.538ZM131.874 556.16C132.297 556.16 132.679 556.252 133.021 556.437C133.361 556.614 133.628 556.883 133.819 557.245C134.017 557.607 134.116 558.048 134.116 558.566V561.873H133.195V558.699C133.195 558.14 133.054 557.713 132.775 557.419C132.495 557.119 132.112 556.969 131.628 556.969C131.137 556.969 130.744 557.123 130.451 557.43C130.164 557.737 130.021 558.184 130.021 558.771V561.873H129.089V554.297H130.021V557.061C130.205 556.774 130.458 556.553 130.779 556.396C131.106 556.238 131.471 556.16 131.874 556.16ZM135.904 559.047C135.904 558.474 136.02 557.972 136.252 557.542C136.484 557.106 136.801 556.768 137.204 556.529C137.614 556.29 138.067 556.17 138.566 556.17C139.057 556.17 139.484 556.276 139.846 556.488C140.207 556.699 140.477 556.965 140.654 557.286V556.263H141.596V561.873H140.654V560.829C140.47 561.156 140.194 561.429 139.825 561.648C139.463 561.859 139.04 561.965 138.556 561.965C138.057 561.965 137.607 561.842 137.204 561.596C136.801 561.351 136.484 561.006 136.252 560.562C136.02 560.119 135.904 559.614 135.904 559.047ZM140.654 559.057C140.654 558.634 140.569 558.265 140.399 557.952C140.227 557.638 139.996 557.399 139.702 557.235C139.416 557.065 139.098 556.979 138.75 556.979C138.402 556.979 138.085 557.061 137.798 557.225C137.511 557.389 137.283 557.628 137.112 557.942C136.941 558.255 136.856 558.624 136.856 559.047C136.856 559.477 136.941 559.852 137.112 560.173C137.283 560.487 137.511 560.73 137.798 560.9C138.085 561.064 138.402 561.146 138.75 561.146C139.098 561.146 139.416 561.064 139.702 560.9C139.996 560.73 140.227 560.487 140.399 560.173C140.569 559.852 140.654 559.481 140.654 559.057ZM145.874 561.013L147.614 556.263H148.607L146.406 561.873H145.321L143.12 556.263H144.123L145.874 561.013ZM155.256 558.853C155.256 559.03 155.246 559.218 155.226 559.416H150.742C150.776 559.969 150.964 560.402 151.305 560.716C151.653 561.023 152.073 561.177 152.564 561.177C152.967 561.177 153.301 561.085 153.567 560.9C153.841 560.709 154.032 560.456 154.141 560.143H155.144C154.994 560.682 154.693 561.122 154.243 561.463C153.792 561.798 153.233 561.965 152.564 561.965C152.032 561.965 151.554 561.846 151.131 561.607C150.715 561.368 150.387 561.03 150.148 560.593C149.909 560.149 149.79 559.637 149.79 559.057C149.79 558.478 149.906 557.969 150.138 557.532C150.37 557.095 150.694 556.761 151.11 556.529C151.534 556.29 152.018 556.17 152.564 556.17C153.096 556.17 153.567 556.287 153.977 556.518C154.386 556.75 154.701 557.071 154.919 557.481C155.144 557.884 155.256 558.341 155.256 558.853ZM154.294 558.658C154.294 558.304 154.216 557.999 154.059 557.747C153.902 557.487 153.687 557.293 153.414 557.163C153.148 557.027 152.851 556.959 152.523 556.959C152.052 556.959 151.65 557.109 151.315 557.409C150.987 557.71 150.8 558.126 150.752 558.658H154.294ZM160.096 559.047C160.096 558.474 160.212 557.972 160.444 557.542C160.677 557.106 160.994 556.768 161.396 556.529C161.806 556.29 162.26 556.17 162.758 556.17C163.249 556.17 163.676 556.276 164.038 556.488C164.4 556.699 164.669 556.965 164.846 557.286V556.263H165.788V561.873H164.846V560.829C164.662 561.156 164.386 561.429 164.017 561.648C163.656 561.859 163.232 561.965 162.748 561.965C162.25 561.965 161.799 561.842 161.396 561.596C160.994 561.351 160.677 561.006 160.444 560.562C160.212 560.119 160.096 559.614 160.096 559.047ZM164.846 559.057C164.846 558.634 164.762 558.265 164.59 557.952C164.42 557.638 164.188 557.399 163.894 557.235C163.608 557.065 163.29 556.979 162.942 556.979C162.594 556.979 162.277 557.061 161.99 557.225C161.703 557.389 161.475 557.628 161.304 557.942C161.134 558.255 161.048 558.624 161.048 559.047C161.048 559.477 161.134 559.852 161.304 560.173C161.475 560.487 161.703 560.73 161.99 560.9C162.277 561.064 162.594 561.146 162.942 561.146C163.29 561.146 163.608 561.064 163.894 560.9C164.188 560.73 164.42 560.487 164.59 560.173C164.762 559.852 164.846 559.481 164.846 559.057ZM170.71 556.16C171.393 556.16 171.946 556.369 172.369 556.785C172.792 557.194 173.004 557.788 173.004 558.566V561.873H172.082V558.699C172.082 558.14 171.943 557.713 171.663 557.419C171.383 557.119 171.001 556.969 170.516 556.969C170.025 556.969 169.633 557.123 169.339 557.43C169.052 557.737 168.909 558.184 168.909 558.771V561.873H167.977V556.263H168.909V557.061C169.093 556.774 169.342 556.553 169.656 556.396C169.977 556.238 170.329 556.16 170.71 556.16ZM178.136 559.047C178.136 558.474 178.251 557.972 178.484 557.542C178.716 557.106 179.033 556.768 179.436 556.529C179.846 556.29 180.299 556.17 180.798 556.17C181.289 556.17 181.715 556.276 182.077 556.488C182.439 556.699 182.708 556.965 182.886 557.286V556.263H183.828V561.873H182.886V560.829C182.702 561.156 182.425 561.429 182.057 561.648C181.695 561.859 181.272 561.965 180.787 561.965C180.289 561.965 179.838 561.842 179.436 561.596C179.033 561.351 178.716 561.006 178.484 560.562C178.251 560.119 178.136 559.614 178.136 559.047ZM182.886 559.057C182.886 558.634 182.801 558.265 182.63 557.952C182.459 557.638 182.227 557.399 181.934 557.235C181.647 557.065 181.33 556.979 180.982 556.979C180.634 556.979 180.316 557.061 180.03 557.225C179.743 557.389 179.514 557.628 179.344 557.942C179.173 558.255 179.088 558.624 179.088 559.047C179.088 559.477 179.173 559.852 179.344 560.173C179.514 560.487 179.743 560.73 180.03 560.9C180.316 561.064 180.634 561.146 180.982 561.146C181.33 561.146 181.647 561.064 181.934 560.9C182.227 560.73 182.459 560.487 182.63 560.173C182.801 559.852 182.886 559.481 182.886 559.057ZM185.669 559.057C185.669 558.478 185.784 557.972 186.017 557.542C186.249 557.106 186.57 556.768 186.979 556.529C187.395 556.29 187.87 556.17 188.402 556.17C189.091 556.17 189.658 556.338 190.102 556.672C190.552 557.006 190.849 557.471 190.992 558.064H189.989C189.893 557.723 189.705 557.454 189.426 557.256C189.152 557.057 188.812 556.959 188.402 556.959C187.87 556.959 187.44 557.143 187.112 557.512C186.785 557.874 186.621 558.388 186.621 559.057C186.621 559.733 186.785 560.255 187.112 560.624C187.44 560.992 187.87 561.177 188.402 561.177C188.812 561.177 189.152 561.081 189.426 560.89C189.699 560.699 189.887 560.426 189.989 560.071H190.992C190.842 560.644 190.542 561.105 190.091 561.453C189.641 561.795 189.078 561.965 188.402 561.965C187.87 561.965 187.395 561.846 186.979 561.607C186.57 561.368 186.249 561.03 186.017 560.593C185.784 560.157 185.669 559.645 185.669 559.057ZM192.502 559.057C192.502 558.478 192.617 557.972 192.85 557.542C193.082 557.106 193.403 556.768 193.812 556.529C194.228 556.29 194.703 556.17 195.235 556.17C195.924 556.17 196.491 556.338 196.935 556.672C197.385 557.006 197.682 557.471 197.825 558.064H196.822C196.726 557.723 196.538 557.454 196.259 557.256C195.985 557.057 195.645 556.959 195.235 556.959C194.703 556.959 194.273 557.143 193.945 557.512C193.618 557.874 193.454 558.388 193.454 559.057C193.454 559.733 193.618 560.255 193.945 560.624C194.273 560.992 194.703 561.177 195.235 561.177C195.645 561.177 195.985 561.081 196.259 560.89C196.532 560.699 196.72 560.426 196.822 560.071H197.825C197.675 560.644 197.375 561.105 196.924 561.453C196.474 561.795 195.911 561.965 195.235 561.965C194.703 561.965 194.228 561.846 193.812 561.607C193.403 561.368 193.082 561.03 192.85 560.593C192.617 560.157 192.502 559.645 192.502 559.057ZM202.129 561.965C201.604 561.965 201.126 561.846 200.696 561.607C200.273 561.368 199.938 561.03 199.692 560.593C199.454 560.149 199.334 559.637 199.334 559.057C199.334 558.484 199.457 557.979 199.702 557.542C199.956 557.098 200.296 556.761 200.726 556.529C201.156 556.29 201.637 556.17 202.17 556.17C202.702 556.17 203.183 556.29 203.613 556.529C204.043 556.761 204.381 557.095 204.627 557.532C204.88 557.969 205.006 558.478 205.006 559.057C205.006 559.637 204.876 560.149 204.617 560.593C204.364 561.03 204.02 561.368 203.583 561.607C203.146 561.846 202.661 561.965 202.129 561.965ZM202.129 561.146C202.464 561.146 202.778 561.068 203.071 560.911C203.365 560.753 203.6 560.518 203.777 560.204C203.961 559.89 204.054 559.508 204.054 559.057C204.054 558.607 203.965 558.225 203.787 557.911C203.61 557.597 203.378 557.365 203.091 557.215C202.805 557.057 202.494 556.979 202.16 556.979C201.819 556.979 201.504 557.057 201.218 557.215C200.938 557.365 200.713 557.597 200.542 557.911C200.372 558.225 200.286 558.607 200.286 559.057C200.286 559.515 200.368 559.901 200.532 560.214C200.703 560.528 200.928 560.764 201.207 560.921C201.488 561.071 201.795 561.146 202.129 561.146ZM211.821 556.263V561.873H210.89V561.044C210.712 561.33 210.462 561.555 210.142 561.719C209.828 561.876 209.48 561.955 209.098 561.955C208.661 561.955 208.269 561.866 207.921 561.689C207.572 561.504 207.296 561.232 207.091 560.87C206.893 560.508 206.794 560.067 206.794 559.549V556.263H207.716V559.426C207.716 559.979 207.855 560.405 208.136 560.706C208.415 560.999 208.797 561.146 209.282 561.146C209.78 561.146 210.173 560.992 210.46 560.685C210.746 560.378 210.89 559.931 210.89 559.344V556.263H211.821ZM216.742 556.16C217.424 556.16 217.977 556.369 218.4 556.785C218.823 557.194 219.035 557.788 219.035 558.566V561.873H218.114V558.699C218.114 558.14 217.973 557.713 217.694 557.419C217.414 557.119 217.031 556.969 216.547 556.969C216.056 556.969 215.663 557.123 215.37 557.43C215.083 557.737 214.94 558.184 214.94 558.771V561.873H214.008V556.263H214.94V557.061C215.124 556.774 215.373 556.553 215.687 556.396C216.008 556.238 216.359 556.16 216.742 556.16ZM222.308 557.03V560.337C222.308 560.61 222.365 560.804 222.482 560.921C222.597 561.03 222.799 561.085 223.086 561.085H223.772V561.873H222.932C222.413 561.873 222.024 561.754 221.765 561.515C221.505 561.275 221.376 560.883 221.376 560.337V557.03H220.649V556.263H221.376V554.85H222.308V556.263H223.772V557.03H222.308ZM230.681 554.645C231.356 554.645 231.902 554.836 232.319 555.218C232.735 555.601 232.943 556.113 232.943 556.754C232.943 557.471 232.721 558.003 232.278 558.351C231.834 558.693 231.233 558.863 230.476 558.863L230.445 559.836H229.636L229.595 558.218H229.892C230.568 558.218 231.097 558.116 231.479 557.911C231.861 557.706 232.053 557.321 232.053 556.754C232.053 556.344 231.93 556.02 231.684 555.781C231.438 555.542 231.107 555.423 230.691 555.423C230.267 555.423 229.933 555.539 229.688 555.771C229.448 555.996 229.329 556.307 229.329 556.703H228.449C228.449 556.293 228.541 555.935 228.725 555.628C228.91 555.314 229.168 555.071 229.503 554.901C229.844 554.731 230.237 554.645 230.681 554.645ZM230.036 561.934C229.858 561.934 229.708 561.873 229.585 561.75C229.462 561.627 229.401 561.477 229.401 561.3C229.401 561.122 229.462 560.972 229.585 560.849C229.708 560.726 229.858 560.665 230.036 560.665C230.206 560.665 230.349 560.726 230.466 560.849C230.589 560.972 230.65 561.122 230.65 561.3C230.65 561.477 230.589 561.627 230.466 561.75C230.349 561.873 230.206 561.934 230.036 561.934Z" fill="black"/>
<path d="M240.632 561.945C240.106 561.945 239.635 561.859 239.219 561.689C238.803 561.518 238.468 561.265 238.216 560.931C237.97 560.597 237.841 560.194 237.827 559.723H239.69C239.717 559.989 239.809 560.194 239.966 560.337C240.124 560.474 240.328 560.542 240.581 560.542C240.84 560.542 241.045 560.484 241.195 560.368C241.345 560.245 241.42 560.078 241.42 559.866C241.42 559.689 241.359 559.542 241.236 559.426C241.12 559.31 240.973 559.215 240.796 559.139C240.625 559.064 240.38 558.979 240.058 558.883C239.594 558.74 239.215 558.597 238.922 558.453C238.629 558.31 238.376 558.099 238.165 557.819C237.953 557.539 237.847 557.174 237.847 556.723C237.847 556.054 238.089 555.532 238.574 555.157C239.059 554.774 239.69 554.584 240.468 554.584C241.26 554.584 241.898 554.774 242.382 555.157C242.867 555.532 243.126 556.058 243.161 556.733H241.267C241.253 556.502 241.168 556.32 241.011 556.191C240.853 556.054 240.652 555.986 240.407 555.986C240.195 555.986 240.024 556.044 239.895 556.16C239.765 556.269 239.7 556.43 239.7 556.641C239.7 556.873 239.809 557.054 240.028 557.184C240.246 557.313 240.587 557.454 241.052 557.604C241.516 557.761 241.891 557.911 242.178 558.054C242.471 558.197 242.724 558.406 242.935 558.679C243.147 558.951 243.253 559.303 243.253 559.733C243.253 560.143 243.147 560.515 242.935 560.849C242.731 561.183 242.43 561.449 242.034 561.648C241.639 561.846 241.171 561.945 240.632 561.945ZM245.825 555.566C245.517 555.566 245.265 555.478 245.067 555.3C244.876 555.116 244.78 554.891 244.78 554.624C244.78 554.352 244.876 554.126 245.067 553.949C245.265 553.764 245.517 553.672 245.825 553.672C246.125 553.672 246.371 553.764 246.562 553.949C246.76 554.126 246.859 554.352 246.859 554.624C246.859 554.891 246.76 555.116 246.562 555.3C246.371 555.478 246.125 555.566 245.825 555.566ZM246.695 556.16V561.873H244.944V556.16H246.695ZM250.748 556.078C251.151 556.078 251.502 556.16 251.803 556.324C252.11 556.488 252.345 556.703 252.509 556.969V556.16H254.26V561.863C254.26 562.388 254.154 562.862 253.942 563.286C253.738 563.716 253.42 564.057 252.99 564.309C252.567 564.562 252.038 564.688 251.403 564.688C250.557 564.688 249.871 564.487 249.346 564.084C248.82 563.689 248.52 563.149 248.445 562.467H250.175C250.23 562.685 250.359 562.856 250.564 562.979C250.769 563.108 251.021 563.173 251.322 563.173C251.684 563.173 251.97 563.067 252.182 562.856C252.4 562.651 252.509 562.32 252.509 561.863V561.054C252.339 561.32 252.103 561.539 251.803 561.709C251.502 561.873 251.151 561.955 250.748 561.955C250.277 561.955 249.851 561.836 249.469 561.596C249.086 561.351 248.783 561.006 248.557 560.562C248.339 560.112 248.23 559.593 248.23 559.006C248.23 558.419 248.339 557.904 248.557 557.46C248.783 557.016 249.086 556.676 249.469 556.437C249.851 556.197 250.277 556.078 250.748 556.078ZM252.509 559.016C252.509 558.58 252.386 558.235 252.141 557.982C251.901 557.73 251.608 557.604 251.26 557.604C250.912 557.604 250.615 557.73 250.369 557.982C250.13 558.228 250.011 558.57 250.011 559.006C250.011 559.443 250.13 559.791 250.369 560.05C250.615 560.303 250.912 560.429 251.26 560.429C251.608 560.429 251.901 560.303 252.141 560.05C252.386 559.798 252.509 559.453 252.509 559.016ZM259.621 556.099C260.291 556.099 260.823 556.317 261.219 556.754C261.622 557.184 261.823 557.778 261.823 558.535V561.873H260.082V558.771C260.082 558.388 259.983 558.091 259.785 557.88C259.587 557.669 259.321 557.563 258.987 557.563C258.653 557.563 258.386 557.669 258.188 557.88C257.99 558.091 257.891 558.388 257.891 558.771V561.873H256.141V556.16H257.891V556.918C258.069 556.665 258.307 556.467 258.608 556.324C258.908 556.174 259.246 556.099 259.621 556.099ZM268.158 554.686V558.986C268.158 559.416 268.263 559.747 268.475 559.979C268.686 560.211 268.997 560.327 269.407 560.327C269.816 560.327 270.13 560.211 270.349 559.979C270.566 559.747 270.676 559.416 270.676 558.986V554.686H272.427V558.976C272.427 559.617 272.29 560.159 272.017 560.603C271.744 561.047 271.375 561.381 270.912 561.607C270.454 561.832 269.942 561.945 269.376 561.945C268.809 561.945 268.301 561.836 267.85 561.617C267.407 561.392 267.055 561.057 266.796 560.614C266.536 560.163 266.407 559.617 266.407 558.976V554.686H268.158ZM276.021 556.969C276.191 556.703 276.427 556.488 276.727 556.324C277.027 556.16 277.379 556.078 277.782 556.078C278.253 556.078 278.679 556.197 279.062 556.437C279.443 556.676 279.744 557.016 279.963 557.46C280.188 557.904 280.3 558.419 280.3 559.006C280.3 559.593 280.188 560.112 279.963 560.562C279.744 561.006 279.443 561.351 279.062 561.596C278.679 561.836 278.253 561.955 277.782 561.955C277.386 561.955 277.035 561.873 276.727 561.709C276.427 561.545 276.191 561.334 276.021 561.074V564.596H274.27V556.16H276.021V556.969ZM278.519 559.006C278.519 558.57 278.396 558.228 278.15 557.982C277.911 557.73 277.614 557.604 277.26 557.604C276.912 557.604 276.615 557.73 276.369 557.982C276.13 558.235 276.011 558.58 276.011 559.016C276.011 559.453 276.13 559.798 276.369 560.05C276.615 560.303 276.912 560.429 277.26 560.429C277.608 560.429 277.905 560.303 278.15 560.05C278.396 559.791 278.519 559.443 278.519 559.006Z" fill="#50C2C9"/>
<g filter="url(#filter1_i)">
<path d="M296.677 485.821H79.4888C73.8346 485.821 69.251 490.404 69.251 496.058V520.922C69.251 526.576 73.8346 531.159 79.4888 531.159H296.677C302.331 531.159 306.914 526.576 306.914 520.922V496.058C306.914 490.404 302.331 485.821 296.677 485.821Z" fill="#302CE1"/>
</g>
<path d="M167.023 512.97C166.382 512.97 165.803 512.86 165.285 512.641C164.776 512.421 164.373 512.106 164.074 511.693C163.776 511.281 163.623 510.794 163.614 510.232H165.588C165.615 510.609 165.746 510.908 165.983 511.127C166.229 511.347 166.562 511.456 166.983 511.456C167.413 511.456 167.751 511.355 167.997 511.153C168.243 510.943 168.366 510.671 168.366 510.337C168.366 510.065 168.282 509.842 168.115 509.666C167.949 509.491 167.738 509.355 167.484 509.258C167.238 509.153 166.896 509.039 166.457 508.916C165.86 508.74 165.373 508.569 164.996 508.402C164.627 508.227 164.307 507.968 164.035 507.626C163.772 507.275 163.64 506.81 163.64 506.231C163.64 505.686 163.776 505.213 164.048 504.809C164.32 504.405 164.702 504.098 165.193 503.888C165.685 503.668 166.246 503.558 166.878 503.558C167.826 503.558 168.594 503.791 169.182 504.256C169.778 504.712 170.107 505.353 170.169 506.178H168.142C168.124 505.862 167.988 505.603 167.734 505.401C167.488 505.191 167.159 505.085 166.747 505.085C166.387 505.085 166.097 505.178 165.878 505.362C165.667 505.546 165.562 505.814 165.562 506.165C165.562 506.41 165.641 506.617 165.799 506.783C165.966 506.941 166.167 507.073 166.404 507.178C166.65 507.275 166.992 507.389 167.431 507.521C168.028 507.696 168.515 507.872 168.892 508.047C169.269 508.223 169.594 508.486 169.866 508.837C170.138 509.188 170.274 509.649 170.274 510.219C170.274 510.71 170.147 511.167 169.892 511.588C169.638 512.009 169.265 512.347 168.774 512.601C168.282 512.847 167.699 512.97 167.023 512.97ZM173.596 504.717C173.272 504.717 173 504.616 172.78 504.414C172.57 504.203 172.464 503.945 172.464 503.637C172.464 503.33 172.57 503.076 172.78 502.874C173 502.663 173.272 502.558 173.596 502.558C173.921 502.558 174.189 502.663 174.399 502.874C174.619 503.076 174.728 503.33 174.728 503.637C174.728 503.945 174.619 504.203 174.399 504.414C174.189 504.616 173.921 504.717 173.596 504.717ZM174.505 505.586V512.878H172.662V505.586H174.505ZM179.972 505.467C180.516 505.467 180.994 505.577 181.406 505.796C181.819 506.007 182.143 506.283 182.38 506.625V505.586H184.236V512.93C184.236 513.606 184.1 514.207 183.828 514.734C183.556 515.269 183.148 515.69 182.604 515.997C182.06 516.313 181.402 516.471 180.63 516.471C179.594 516.471 178.743 516.23 178.076 515.747C177.418 515.265 177.045 514.607 176.957 513.773H178.787C178.883 514.106 179.09 514.37 179.406 514.563C179.73 514.764 180.121 514.865 180.577 514.865C181.112 514.865 181.547 514.703 181.88 514.378C182.214 514.062 182.38 513.58 182.38 512.93V511.798C182.143 512.141 181.814 512.426 181.393 512.654C180.981 512.882 180.507 512.996 179.972 512.996C179.357 512.996 178.796 512.838 178.287 512.522C177.778 512.207 177.374 511.763 177.076 511.193C176.786 510.614 176.641 509.951 176.641 509.205C176.641 508.468 176.786 507.814 177.076 507.244C177.374 506.674 177.773 506.235 178.274 505.928C178.783 505.621 179.349 505.467 179.972 505.467ZM182.38 509.232C182.38 508.784 182.293 508.402 182.117 508.087C181.942 507.762 181.705 507.516 181.406 507.349C181.108 507.174 180.788 507.086 180.445 507.086C180.103 507.086 179.787 507.17 179.498 507.336C179.208 507.503 178.971 507.749 178.787 508.073C178.611 508.389 178.524 508.767 178.524 509.205C178.524 509.644 178.611 510.03 178.787 510.364C178.971 510.688 179.208 510.938 179.498 511.114C179.796 511.289 180.112 511.377 180.445 511.377C180.788 511.377 181.108 511.294 181.406 511.127C181.705 510.952 181.942 510.706 182.117 510.39C182.293 510.065 182.38 509.679 182.38 509.232ZM190.867 505.48C191.736 505.48 192.438 505.757 192.973 506.31C193.508 506.854 193.776 507.617 193.776 508.6V512.878H191.933V508.85C191.933 508.271 191.788 507.828 191.499 507.521C191.209 507.205 190.814 507.047 190.314 507.047C189.805 507.047 189.401 507.205 189.103 507.521C188.813 507.828 188.669 508.271 188.669 508.85V512.878H186.826V505.586H188.669V506.494C188.914 506.178 189.226 505.932 189.603 505.757C189.989 505.572 190.411 505.48 190.867 505.48ZM202.087 503.69V512.878H200.245V503.69H202.087ZM208.738 505.48C209.607 505.48 210.309 505.757 210.844 506.31C211.38 506.854 211.647 507.617 211.647 508.6V512.878H209.805V508.85C209.805 508.271 209.66 507.828 209.37 507.521C209.081 507.205 208.686 507.047 208.186 507.047C207.677 507.047 207.273 507.205 206.975 507.521C206.685 507.828 206.54 508.271 206.54 508.85V512.878H204.697V505.586H206.54V506.494C206.786 506.178 207.097 505.932 207.475 505.757C207.861 505.572 208.282 505.48 208.738 505.48Z" fill="white"/>
<g filter="url(#filter2_i)">
<path d="M290.826 348.341H85.339C76.4538 348.341 69.251 355.544 69.251 364.429V369.548C69.251 378.433 76.4538 385.636 85.339 385.636H290.826C299.712 385.636 306.914 378.433 306.914 369.548V364.429C306.914 355.544 299.712 348.341 290.826 348.341Z" fill="white"/>
<path d="M92.7865 364.357V366.572H95.2011V367.285H92.7865V369.566H95.4863V370.279H91.9214V363.644H95.4863V364.357H92.7865ZM99.904 364.975C100.538 364.975 101.051 365.168 101.444 365.555C101.837 365.935 102.033 366.486 102.033 367.209V370.279H101.178V367.332C101.178 366.812 101.048 366.417 100.788 366.144C100.528 365.865 100.173 365.726 99.7233 365.726C99.267 365.726 98.9026 365.868 98.6301 366.154C98.3639 366.439 98.2308 366.854 98.2308 367.399V370.279H97.3657V365.07H98.2308V365.811C98.4019 365.545 98.6333 365.339 98.9248 365.193C99.2227 365.048 99.5491 364.975 99.904 364.975ZM105.072 365.783V368.853C105.072 369.107 105.126 369.288 105.234 369.395C105.342 369.497 105.529 369.547 105.795 369.547H106.432V370.279H105.652C105.17 370.279 104.809 370.168 104.568 369.947C104.327 369.725 104.207 369.36 104.207 368.853V365.783H103.532V365.07H104.207V363.758H105.072V365.07H106.432V365.783H105.072ZM112.803 367.475C112.803 367.64 112.794 367.814 112.775 367.998H108.611C108.643 368.511 108.817 368.913 109.134 369.205C109.457 369.49 109.847 369.633 110.303 369.633C110.677 369.633 110.988 369.547 111.235 369.376C111.488 369.199 111.666 368.965 111.767 368.673H112.699C112.559 369.174 112.281 369.583 111.862 369.899C111.444 370.21 110.924 370.365 110.303 370.365C109.809 370.365 109.365 370.254 108.972 370.032C108.586 369.811 108.282 369.497 108.06 369.091C107.838 368.679 107.727 368.204 107.727 367.665C107.727 367.126 107.835 366.654 108.05 366.249C108.266 365.843 108.567 365.533 108.953 365.317C109.346 365.095 109.796 364.984 110.303 364.984C110.798 364.984 111.235 365.092 111.615 365.307C111.995 365.523 112.287 365.821 112.49 366.201C112.699 366.575 112.803 367 112.803 367.475ZM111.91 367.294C111.91 366.965 111.837 366.683 111.691 366.448C111.545 366.208 111.346 366.027 111.092 365.906C110.845 365.78 110.569 365.716 110.265 365.716C109.828 365.716 109.454 365.856 109.143 366.135C108.839 366.413 108.665 366.8 108.621 367.294H111.91ZM115.381 365.916C115.533 365.618 115.748 365.386 116.027 365.222C116.312 365.057 116.658 364.975 117.063 364.975V365.868H116.835C115.866 365.868 115.381 366.394 115.381 367.446V370.279H114.516V365.07H115.381V365.916ZM126.225 365.07L123.087 372.732H122.194L123.22 370.222L121.119 365.07H122.08L123.715 369.291L125.331 365.07H126.225ZM129.937 370.365C129.449 370.365 129.005 370.254 128.606 370.032C128.213 369.811 127.902 369.497 127.674 369.091C127.452 368.679 127.341 368.204 127.341 367.665C127.341 367.133 127.455 366.664 127.684 366.258C127.918 365.846 128.235 365.533 128.634 365.317C129.033 365.095 129.48 364.984 129.975 364.984C130.469 364.984 130.916 365.095 131.315 365.317C131.714 365.533 132.028 365.843 132.256 366.249C132.491 366.654 132.608 367.126 132.608 367.665C132.608 368.204 132.487 368.679 132.247 369.091C132.012 369.497 131.692 369.811 131.286 370.032C130.881 370.254 130.431 370.365 129.937 370.365ZM129.937 369.604C130.247 369.604 130.538 369.531 130.811 369.386C131.084 369.24 131.303 369.022 131.467 368.73C131.638 368.438 131.724 368.083 131.724 367.665C131.724 367.247 131.641 366.892 131.477 366.6C131.312 366.309 131.096 366.094 130.83 365.954C130.564 365.808 130.276 365.735 129.965 365.735C129.648 365.735 129.357 365.808 129.09 365.954C128.831 366.094 128.622 366.309 128.463 366.6C128.304 366.892 128.225 367.247 128.225 367.665C128.225 368.09 128.301 368.448 128.454 368.739C128.612 369.031 128.821 369.25 129.081 369.395C129.341 369.535 129.626 369.604 129.937 369.604ZM138.936 365.07V370.279H138.071V369.509C137.906 369.776 137.675 369.985 137.377 370.137C137.085 370.282 136.762 370.355 136.407 370.355C136.002 370.355 135.637 370.273 135.314 370.108C134.99 369.937 134.734 369.683 134.544 369.348C134.36 369.012 134.268 368.603 134.268 368.121V365.07H135.123V368.007C135.123 368.521 135.254 368.917 135.513 369.196C135.774 369.468 136.128 369.604 136.578 369.604C137.041 369.604 137.405 369.462 137.671 369.177C137.937 368.891 138.071 368.476 138.071 367.931V365.07H138.936ZM141.832 365.916C141.984 365.618 142.199 365.386 142.479 365.222C142.764 365.057 143.109 364.975 143.515 364.975V365.868H143.287C142.317 365.868 141.832 366.394 141.832 367.446V370.279H140.967V365.07H141.832V365.916ZM152.942 367.475C152.942 367.64 152.932 367.814 152.913 367.998H148.749C148.781 368.511 148.955 368.913 149.272 369.205C149.595 369.49 149.985 369.633 150.441 369.633C150.816 369.633 151.126 369.547 151.373 369.376C151.627 369.199 151.805 368.965 151.905 368.673H152.837C152.698 369.174 152.419 369.583 152.001 369.899C151.582 370.21 151.063 370.365 150.441 370.365C149.947 370.365 149.504 370.254 149.111 370.032C148.724 369.811 148.42 369.497 148.198 369.091C147.976 368.679 147.865 368.204 147.865 367.665C147.865 367.126 147.973 366.654 148.188 366.249C148.404 365.843 148.705 365.533 149.092 365.317C149.485 365.095 149.935 364.984 150.441 364.984C150.936 364.984 151.373 365.092 151.753 365.307C152.134 365.523 152.425 365.821 152.628 366.201C152.837 366.575 152.942 367 152.942 367.475ZM152.048 367.294C152.048 366.965 151.976 366.683 151.829 366.448C151.684 366.208 151.484 366.027 151.23 365.906C150.983 365.78 150.708 365.716 150.403 365.716C149.966 365.716 149.592 365.856 149.282 366.135C148.977 366.413 148.803 366.8 148.759 367.294H152.048ZM160.919 364.975C161.324 364.975 161.685 365.06 162.003 365.231C162.319 365.396 162.57 365.647 162.754 365.982C162.937 366.318 163.03 366.727 163.03 367.209V370.279H162.174V367.332C162.174 366.812 162.044 366.417 161.784 366.144C161.53 365.865 161.185 365.726 160.748 365.726C160.298 365.726 159.94 365.871 159.674 366.163C159.408 366.448 159.274 366.864 159.274 367.408V370.279H158.419V367.332C158.419 366.812 158.289 366.417 158.029 366.144C157.775 365.865 157.43 365.726 156.993 365.726C156.542 365.726 156.185 365.871 155.919 366.163C155.652 366.448 155.519 366.864 155.519 367.408V370.279H154.654V365.07H155.519V365.821C155.691 365.548 155.919 365.339 156.204 365.193C156.495 365.048 156.815 364.975 157.164 364.975C157.601 364.975 157.987 365.073 158.324 365.269C158.659 365.466 158.91 365.754 159.075 366.135C159.22 365.767 159.461 365.482 159.797 365.279C160.133 365.076 160.507 364.975 160.919 364.975ZM164.695 367.656C164.695 367.123 164.804 366.657 165.019 366.258C165.234 365.852 165.529 365.539 165.903 365.317C166.283 365.095 166.705 364.984 167.167 364.984C167.623 364.984 168.02 365.082 168.355 365.279C168.692 365.476 168.942 365.723 169.106 366.02V365.07H169.981V370.279H169.106V369.31C168.935 369.614 168.679 369.868 168.336 370.07C168.001 370.267 167.608 370.365 167.158 370.365C166.695 370.365 166.277 370.251 165.903 370.023C165.529 369.795 165.234 369.474 165.019 369.063C164.804 368.651 164.695 368.181 164.695 367.656ZM169.106 367.665C169.106 367.272 169.027 366.93 168.869 366.638C168.711 366.347 168.495 366.125 168.222 365.973C167.956 365.814 167.661 365.735 167.338 365.735C167.015 365.735 166.72 365.811 166.454 365.963C166.188 366.116 165.976 366.337 165.817 366.629C165.659 366.921 165.58 367.263 165.58 367.656C165.58 368.055 165.659 368.404 165.817 368.701C165.976 368.993 166.188 369.218 166.454 369.376C166.72 369.528 167.015 369.604 167.338 369.604C167.661 369.604 167.956 369.528 168.222 369.376C168.495 369.218 168.711 368.993 168.869 368.701C169.027 368.404 169.106 368.058 169.106 367.665ZM172.46 364.224C172.296 364.224 172.156 364.167 172.042 364.053C171.928 363.939 171.871 363.799 171.871 363.634C171.871 363.47 171.928 363.33 172.042 363.216C172.156 363.102 172.296 363.045 172.46 363.045C172.619 363.045 172.752 363.102 172.859 363.216C172.973 363.33 173.03 363.47 173.03 363.634C173.03 363.799 172.973 363.939 172.859 364.053C172.752 364.167 172.619 364.224 172.46 364.224ZM172.878 365.07V370.279H172.013V365.07H172.878ZM175.789 363.245V370.279H174.924V363.245H175.789Z" fill="black" fill-opacity="0.7"/>
</g>
<g filter="url(#filter3_i)">
<path d="M290.826 400.993H85.339C76.4538 400.993 69.251 408.196 69.251 417.081V422.2C69.251 431.085 76.4538 438.288 85.339 438.288H290.826C299.712 438.288 306.914 431.085 306.914 422.2V417.081C306.914 408.196 299.712 400.993 290.826 400.993Z" fill="white"/>
<path d="M92.7865 417.009V419.224H95.2011V419.937H92.7865V422.218H95.4863V422.931H91.9214V416.296H95.4863V417.009H92.7865ZM99.904 417.626C100.538 417.626 101.051 417.819 101.444 418.206C101.837 418.587 102.033 419.138 102.033 419.86V422.931H101.178V419.984C101.178 419.464 101.048 419.068 100.788 418.796C100.528 418.517 100.173 418.377 99.7233 418.377C99.267 418.377 98.9026 418.52 98.6301 418.805C98.3639 419.09 98.2308 419.506 98.2308 420.051V422.931H97.3657V417.721H98.2308V418.463C98.4019 418.197 98.6333 417.991 98.9248 417.845C99.2227 417.7 99.5491 417.626 99.904 417.626ZM105.072 418.434V421.505C105.072 421.759 105.126 421.939 105.234 422.047C105.342 422.149 105.529 422.199 105.795 422.199H106.432V422.931H105.652C105.17 422.931 104.809 422.82 104.568 422.598C104.327 422.377 104.207 422.012 104.207 421.505V418.434H103.532V417.721H104.207V416.41H105.072V417.721H106.432V418.434H105.072ZM112.803 420.127C112.803 420.291 112.794 420.466 112.775 420.65H108.611C108.643 421.163 108.817 421.565 109.134 421.857C109.457 422.142 109.847 422.285 110.303 422.285C110.677 422.285 110.988 422.199 111.235 422.028C111.488 421.85 111.666 421.616 111.767 421.324H112.699C112.56 421.825 112.281 422.234 111.862 422.551C111.444 422.862 110.924 423.017 110.303 423.017C109.809 423.017 109.365 422.905 108.972 422.684C108.586 422.462 108.282 422.149 108.06 421.743C107.838 421.331 107.727 420.856 107.727 420.317C107.727 419.778 107.835 419.306 108.05 418.9C108.266 418.494 108.567 418.184 108.953 417.969C109.346 417.747 109.796 417.636 110.303 417.636C110.798 417.636 111.235 417.743 111.615 417.959C111.995 418.175 112.287 418.473 112.49 418.853C112.699 419.226 112.803 419.651 112.803 420.127ZM111.91 419.946C111.91 419.616 111.837 419.335 111.691 419.1C111.545 418.859 111.346 418.679 111.092 418.558C110.845 418.432 110.569 418.368 110.265 418.368C109.828 418.368 109.454 418.508 109.143 418.786C108.839 419.065 108.665 419.452 108.621 419.946H111.91ZM115.381 418.568C115.533 418.27 115.748 418.038 116.027 417.874C116.312 417.709 116.658 417.626 117.063 417.626V418.52H116.835C115.866 418.52 115.381 419.046 115.381 420.098V422.931H114.516V417.721H115.381V418.568ZM122.602 418.682C122.774 418.384 123.027 418.137 123.363 417.94C123.705 417.738 124.101 417.636 124.551 417.636C125.014 417.636 125.432 417.747 125.806 417.969C126.187 418.19 126.484 418.504 126.7 418.91C126.915 419.309 127.023 419.775 127.023 420.307C127.023 420.833 126.915 421.303 126.7 421.714C126.484 422.126 126.187 422.446 125.806 422.674C125.432 422.903 125.014 423.017 124.551 423.017C124.108 423.017 123.715 422.919 123.373 422.722C123.037 422.519 122.78 422.269 122.602 421.971V425.403H121.737V417.721H122.602V418.682ZM126.139 420.307C126.139 419.915 126.059 419.572 125.901 419.281C125.743 418.989 125.527 418.767 125.255 418.615C124.989 418.463 124.694 418.387 124.371 418.387C124.054 418.387 123.759 418.466 123.487 418.625C123.22 418.777 123.005 419.002 122.84 419.3C122.682 419.591 122.602 419.93 122.602 420.317C122.602 420.709 122.682 421.055 122.84 421.353C123.005 421.645 123.22 421.869 123.487 422.028C123.759 422.18 124.054 422.256 124.371 422.256C124.694 422.256 124.989 422.18 125.255 422.028C125.527 421.869 125.743 421.645 125.901 421.353C126.059 421.055 126.139 420.707 126.139 420.307ZM128.409 420.307C128.409 419.775 128.516 419.309 128.732 418.91C128.948 418.504 129.243 418.19 129.616 417.969C129.997 417.747 130.418 417.636 130.881 417.636C131.337 417.636 131.733 417.734 132.069 417.931C132.405 418.127 132.655 418.375 132.82 418.672V417.721H133.695V422.931H132.82V421.961C132.649 422.266 132.392 422.519 132.05 422.722C131.714 422.919 131.321 423.017 130.871 423.017C130.408 423.017 129.99 422.903 129.616 422.674C129.243 422.446 128.948 422.126 128.732 421.714C128.516 421.303 128.409 420.833 128.409 420.307ZM132.82 420.317C132.82 419.924 132.741 419.582 132.582 419.29C132.424 418.998 132.209 418.777 131.936 418.625C131.67 418.466 131.375 418.387 131.052 418.387C130.729 418.387 130.434 418.463 130.168 418.615C129.901 418.767 129.689 418.989 129.531 419.281C129.372 419.572 129.293 419.915 129.293 420.307C129.293 420.707 129.372 421.055 129.531 421.353C129.689 421.645 129.901 421.869 130.168 422.028C130.434 422.18 130.729 422.256 131.052 422.256C131.375 422.256 131.67 422.18 131.936 422.028C132.209 421.869 132.424 421.645 132.582 421.353C132.741 421.055 132.82 420.709 132.82 420.317ZM137.571 423.017C137.172 423.017 136.813 422.95 136.497 422.817C136.18 422.677 135.929 422.487 135.746 422.247C135.562 421.999 135.461 421.717 135.442 421.401H136.335C136.361 421.66 136.481 421.873 136.696 422.037C136.918 422.202 137.207 422.285 137.562 422.285C137.891 422.285 138.151 422.211 138.341 422.066C138.531 421.92 138.626 421.736 138.626 421.515C138.626 421.286 138.525 421.118 138.322 421.011C138.12 420.897 137.806 420.786 137.381 420.678C136.994 420.576 136.677 420.475 136.43 420.374C136.19 420.266 135.981 420.111 135.803 419.908C135.632 419.699 135.546 419.426 135.546 419.09C135.546 418.824 135.625 418.58 135.784 418.358C135.943 418.137 136.167 417.962 136.459 417.836C136.751 417.702 137.083 417.636 137.457 417.636C138.034 417.636 138.5 417.781 138.854 418.073C139.209 418.365 139.399 418.764 139.425 419.271H138.56C138.541 418.998 138.43 418.78 138.227 418.615C138.03 418.451 137.764 418.368 137.428 418.368C137.118 418.368 136.87 418.434 136.687 418.568C136.503 418.701 136.411 418.875 136.411 419.09C136.411 419.262 136.465 419.404 136.573 419.518C136.687 419.626 136.827 419.715 136.991 419.784C137.162 419.848 137.397 419.92 137.695 420.003C138.068 420.105 138.373 420.206 138.607 420.307C138.842 420.402 139.042 420.548 139.206 420.745C139.377 420.941 139.466 421.198 139.472 421.515C139.472 421.8 139.393 422.056 139.235 422.285C139.076 422.513 138.852 422.693 138.56 422.826C138.275 422.953 137.945 423.017 137.571 423.017ZM143.108 423.017C142.709 423.017 142.351 422.95 142.034 422.817C141.717 422.677 141.467 422.487 141.283 422.247C141.099 421.999 140.998 421.717 140.979 421.401H141.872C141.898 421.66 142.018 421.873 142.234 422.037C142.455 422.202 142.744 422.285 143.099 422.285C143.429 422.285 143.688 422.211 143.878 422.066C144.068 421.92 144.163 421.736 144.163 421.515C144.163 421.286 144.062 421.118 143.859 421.011C143.657 420.897 143.343 420.786 142.918 420.678C142.531 420.576 142.215 420.475 141.967 420.374C141.727 420.266 141.518 420.111 141.34 419.908C141.169 419.699 141.083 419.426 141.083 419.09C141.083 418.824 141.162 418.58 141.321 418.358C141.48 418.137 141.704 417.962 141.996 417.836C142.288 417.702 142.62 417.636 142.994 417.636C143.571 417.636 144.037 417.781 144.392 418.073C144.746 418.365 144.936 418.764 144.962 419.271H144.097C144.078 418.998 143.967 418.78 143.764 418.615C143.567 418.451 143.301 418.368 142.966 418.368C142.655 418.368 142.408 418.434 142.224 418.568C142.041 418.701 141.948 418.875 141.948 419.09C141.948 419.262 142.003 419.404 142.11 419.518C142.224 419.626 142.364 419.715 142.528 419.784C142.699 419.848 142.934 419.92 143.232 420.003C143.606 420.105 143.91 420.206 144.144 420.307C144.379 420.402 144.579 420.548 144.743 420.745C144.914 420.941 145.003 421.198 145.01 421.515C145.01 421.8 144.931 422.056 144.772 422.285C144.613 422.513 144.389 422.693 144.097 422.826C143.812 422.953 143.482 423.017 143.108 423.017ZM153.741 417.721L152.115 422.931H151.222L149.967 418.796L148.712 422.931H147.818L146.183 417.721H147.067L148.265 422.094L149.558 417.721H150.442L151.707 422.104L152.885 417.721H153.741ZM157.442 423.017C156.954 423.017 156.51 422.905 156.111 422.684C155.718 422.462 155.408 422.149 155.179 421.743C154.958 421.331 154.847 420.856 154.847 420.317C154.847 419.784 154.961 419.316 155.189 418.91C155.424 418.498 155.74 418.184 156.14 417.969C156.539 417.747 156.986 417.636 157.48 417.636C157.974 417.636 158.421 417.747 158.82 417.969C159.22 418.184 159.533 418.494 159.762 418.9C159.996 419.306 160.113 419.778 160.113 420.317C160.113 420.856 159.993 421.331 159.752 421.743C159.517 422.149 159.198 422.462 158.792 422.684C158.386 422.905 157.936 423.017 157.442 423.017ZM157.442 422.256C157.753 422.256 158.044 422.183 158.317 422.037C158.589 421.892 158.808 421.673 158.972 421.382C159.144 421.09 159.229 420.735 159.229 420.317C159.229 419.898 159.147 419.544 158.982 419.252C158.817 418.96 158.602 418.745 158.336 418.606C158.069 418.46 157.781 418.387 157.47 418.387C157.154 418.387 156.862 418.46 156.596 418.606C156.336 418.745 156.127 418.96 155.968 419.252C155.81 419.544 155.731 419.898 155.731 420.317C155.731 420.742 155.807 421.099 155.959 421.391C156.118 421.683 156.327 421.901 156.586 422.047C156.846 422.187 157.131 422.256 157.442 422.256ZM162.687 418.568C162.839 418.27 163.054 418.038 163.333 417.874C163.618 417.709 163.963 417.626 164.369 417.626V418.52H164.141C163.171 418.52 162.687 419.046 162.687 420.098V422.931H161.822V417.721H162.687V418.568ZM165.615 420.307C165.615 419.775 165.723 419.309 165.938 418.91C166.154 418.504 166.448 418.19 166.822 417.969C167.202 417.747 167.627 417.636 168.096 417.636C168.502 417.636 168.879 417.731 169.227 417.921C169.576 418.105 169.842 418.349 170.026 418.653V415.896H170.9V422.931H170.026V421.952C169.855 422.263 169.602 422.519 169.265 422.722C168.929 422.919 168.537 423.017 168.086 423.017C167.624 423.017 167.202 422.903 166.822 422.674C166.448 422.446 166.154 422.126 165.938 421.714C165.723 421.303 165.615 420.833 165.615 420.307ZM170.026 420.317C170.026 419.924 169.947 419.582 169.788 419.29C169.63 418.998 169.414 418.777 169.142 418.625C168.875 418.466 168.581 418.387 168.257 418.387C167.934 418.387 167.64 418.463 167.373 418.615C167.107 418.767 166.895 418.989 166.736 419.281C166.578 419.572 166.499 419.915 166.499 420.307C166.499 420.707 166.578 421.055 166.736 421.353C166.895 421.645 167.107 421.869 167.373 422.028C167.64 422.18 167.934 422.256 168.257 422.256C168.581 422.256 168.875 422.18 169.142 422.028C169.414 421.869 169.63 421.645 169.788 421.353C169.947 421.055 170.026 420.709 170.026 420.317Z" fill="black" fill-opacity="0.7"/>
</g>
<path d="M187.546 219.929H186.863V201.217C186.863 198.344 185.722 195.59 183.691 193.559C181.66 191.528 178.905 190.387 176.034 190.387H136.389C133.517 190.387 130.762 191.528 128.731 193.559C126.701 195.59 125.559 198.344 125.559 201.217V303.873C125.559 306.745 126.701 309.5 128.731 311.531C130.762 313.561 133.517 314.703 136.389 314.703H176.033C178.905 314.703 181.66 313.561 183.691 311.531C185.722 309.5 186.863 306.745 186.863 303.873V233.249H187.546V219.929Z" fill="#3F3D56"/>
<path d="M176.47 193.204H171.296C171.533 193.788 171.625 194.421 171.561 195.048C171.496 195.675 171.278 196.276 170.927 196.799C170.576 197.322 170.101 197.751 169.544 198.047C168.989 198.343 168.368 198.498 167.737 198.498H145.026C144.396 198.498 143.776 198.343 143.219 198.047C142.664 197.751 142.189 197.322 141.837 196.799C141.486 196.276 141.268 195.675 141.204 195.048C141.14 194.421 141.23 193.788 141.469 193.205H136.634C134.489 193.205 132.432 194.057 130.916 195.573C129.399 197.09 128.546 199.147 128.546 201.292V303.797C128.546 305.942 129.399 307.999 130.916 309.517C132.432 311.033 134.489 311.885 136.634 311.885H176.469C178.614 311.885 180.671 311.033 182.188 309.517C183.705 307.999 184.557 305.942 184.557 303.797V201.292C184.557 199.147 183.705 197.09 182.188 195.573C180.671 194.056 178.614 193.204 176.469 193.204H176.47Z" fill="white"/>
<path d="M179.49 213.359H133.615V291.73H179.49V213.359Z" fill="#E6E6E6"/>
<path d="M156.621 306.157C159.073 306.157 161.062 304.168 161.062 301.715C161.062 299.263 159.073 297.274 156.621 297.274C154.168 297.274 152.18 299.263 152.18 301.715C152.18 304.168 154.168 306.157 156.621 306.157Z" fill="#E6E6E6"/>
<path d="M177.85 300.119L177.343 305.024L180.218 304.685L180.556 300.627L177.85 300.119Z" fill="#FFB9B9"/>
<path d="M170.241 262.912C170.241 262.912 155.527 277.118 164.828 281.515H167.703C167.703 281.515 173.961 271.198 177.005 271.368L177.851 281.178L177.343 300.965L181.064 301.134C181.064 301.134 183.262 291.156 183.093 285.575L186.983 264.941L170.241 262.912Z" fill="#2F2E41"/>
<path d="M165.674 280.839L167.703 281.516C167.703 281.516 175.652 279.655 176.159 279.825L177.733 279.814L177.681 275.766H170.916L165.674 280.839Z" fill="#2F2E41"/>
<path d="M180.557 304.01C180.557 304.01 177.512 302.656 177.005 304.01C176.497 305.362 176.667 309.252 176.667 309.252C177.072 310.032 177.192 310.93 177.005 311.789C176.667 313.142 178.358 313.818 180.557 313.142C182.755 312.465 182.755 310.774 182.755 310.774L180.557 304.01Z" fill="#2F2E41"/>
<path d="M183.093 275.426C183.093 275.426 185.46 274.074 185.291 276.103C185.151 277.443 184.809 278.755 184.277 279.993C184.277 279.993 186.475 285.743 184.277 286.251C182.078 286.757 180.387 285.574 180.387 284.728C180.387 283.883 183.093 275.426 183.093 275.426Z" fill="#2F2E41"/>
<path d="M175.652 229.088L175.99 235.514L178.865 238.051L182.078 233.485V228.919L175.652 229.088Z" fill="#FFB9B9"/>
<path d="M177.85 235.514L175.915 234.076L174.637 236.022L168.887 239.404L172.269 248.198L172.438 256.823C172.438 256.823 166.181 263.25 169.902 264.096C173.622 264.941 186.814 266.802 187.491 265.28C188.167 263.757 186.645 248.029 186.645 248.029L187.152 234.668L182.079 232.834L177.85 235.514Z" fill="#84C5BA"/>
<path d="M167.534 246.226C167.534 246.226 166.18 255.808 168.718 255.808C170.224 255.813 171.718 255.526 173.115 254.963L171.085 249.72L171.931 246.168L167.534 246.226Z" fill="#FFB9B9"/>
<path d="M171.424 254.625L173.284 254.963C173.284 254.963 178.696 251.581 179.034 251.412C179.373 251.242 173.622 248.368 173.622 248.368L169.732 249.889L171.424 254.625Z" fill="#FFB9B9"/>
<path opacity="0.1" d="M173.623 248.368L171.18 249.323L171.931 246.169L167.534 246.225C167.534 246.225 166.181 255.808 168.718 255.808C170.225 255.813 171.718 255.526 173.115 254.962L173.102 254.929L173.284 254.962C173.284 254.962 178.696 251.58 179.034 251.411C179.373 251.242 173.623 248.368 173.623 248.368Z" fill="black"/>
<path d="M179.564 232.294C182.231 232.294 184.394 230.132 184.394 227.465C184.394 224.798 182.231 222.636 179.564 222.636C176.897 222.636 174.735 224.798 174.735 227.465C174.735 230.132 176.897 232.294 179.564 232.294Z" fill="#FFB9B9"/>
<path d="M175.294 222.017L174.351 221.639C174.351 221.639 176.324 219.467 179.069 219.656L178.297 218.806C178.297 218.806 180.184 218.051 181.899 220.034C182.802 221.076 183.845 222.302 184.496 223.682H185.507L185.085 224.61L186.56 225.54L185.045 225.373C185.189 226.174 185.14 226.999 184.902 227.778L184.943 228.512C184.943 228.512 183.186 225.795 183.186 225.418V226.362C183.186 226.362 182.243 225.512 182.243 224.945L181.728 225.606L181.47 224.566L178.296 225.605L178.811 224.755L176.838 225.038L177.61 224C177.61 224 175.38 225.227 175.294 226.266C175.208 227.305 174.093 228.627 174.093 228.627L173.578 227.682C173.578 227.682 172.807 223.434 175.294 222.017Z" fill="#2F2E41"/>
<path d="M183.77 243.294C182.917 244.349 182.44 245.658 182.417 247.015L173.453 246.676C173.453 246.676 171.085 246.338 171.085 248.029V249.721C171.085 249.721 172.269 249.213 172.946 249.721C173.622 250.228 180.895 254.625 184.447 252.934C187.998 251.242 188.844 244.647 188.844 244.647C188.844 244.647 185.63 241.941 183.77 243.294Z" fill="#FFB9B9"/>
<path d="M185.8 234.838L187.153 234.669C187.153 234.669 189.859 235.007 189.521 240.25C189.183 245.492 189.013 245.831 189.013 245.831C189.013 245.831 185.462 242.617 182.925 244.139L185.8 234.838Z" fill="#84C5BA"/>
<path d="M169.564 239.405H168.887C168.01 240.512 167.533 241.882 167.534 243.294C167.518 244.806 167.32 246.311 166.942 247.776L172.269 246.846L169.564 239.405Z" fill="#84C5BA"/>
<path d="M251.235 213.355H202.127V223.05H251.235V213.355Z" fill="#E6E6E6"/>
<path d="M203.174 222.004H250.189V214.403H203.174V222.004Z" fill="white"/>
<path d="M207.29 215.244C207.863 215.244 208.423 215.414 208.899 215.732C209.375 216.05 209.747 216.502 209.966 217.032C210.185 217.561 210.243 218.143 210.131 218.705C210.019 219.267 209.743 219.783 209.338 220.188C208.933 220.593 208.417 220.869 207.855 220.98C207.294 221.092 206.711 221.035 206.182 220.816C205.653 220.596 205.201 220.225 204.882 219.749C204.564 219.273 204.394 218.713 204.394 218.14C204.394 217.372 204.699 216.635 205.242 216.092C205.786 215.549 206.522 215.244 207.29 215.244Z" fill="#84C5BA"/>
<path d="M242.799 217.007H214.216V217.636H242.799V217.007Z" fill="#E6E6E6"/>
<path d="M242.799 218.644H214.216V219.273H242.799V218.644Z" fill="#E6E6E6"/>
<path d="M251.235 227.191H202.127V236.887H251.235V227.191Z" fill="#E6E6E6"/>
<path d="M203.174 235.84H250.189V228.239H203.174V235.84Z" fill="white"/>
<path d="M207.29 234.872C208.89 234.872 210.186 233.575 210.186 231.976C210.186 230.376 208.89 229.08 207.29 229.08C205.691 229.08 204.394 230.376 204.394 231.976C204.394 233.575 205.691 234.872 207.29 234.872Z" fill="#84C5BA"/>
<path d="M242.799 230.843H214.216V231.472H242.799V230.843Z" fill="#E6E6E6"/>
<path d="M242.799 232.479H214.216V233.109H242.799V232.479Z" fill="#E6E6E6"/>
<path d="M251.235 241.027H202.127V250.723H251.235V241.027Z" fill="#E6E6E6"/>
<path d="M203.174 249.676H250.189V242.074H203.174V249.676Z" fill="white"/>
<path d="M207.29 248.708C208.89 248.708 210.186 247.412 210.186 245.812C210.186 244.213 208.89 242.916 207.29 242.916C205.691 242.916 204.394 244.213 204.394 245.812C204.394 247.412 205.691 248.708 207.29 248.708Z" fill="#84C5BA"/>
<path d="M242.799 244.679H214.216V245.309H242.799V244.679Z" fill="#E6E6E6"/>
<path d="M242.799 246.316H214.216V246.945H242.799V246.316Z" fill="#E6E6E6"/>
</g>
<defs>
<filter id="filter0_dii" x="0" y="0" width="456.165" height="775" filterUnits="userSpaceOnUse" color-interpolation-filters="sRGB">
<feFlood flood-opacity="0" result="BackgroundImageFix"/>
<feColorMatrix in="SourceAlpha" type="matrix" values="0 0 0 0 0 0 0 0 0 0 0 0 0 0 0 0 0 0 127 0" result="hardAlpha"/>
<feOffset dx="40" dy="60"/>
<feGaussianBlur stdDeviation="40"/>
<feComposite in2="hardAlpha" operator="out"/>
<feColorMatrix type="matrix" values="0 0 0 0 0.60276 0 0 0 0 0.648319 0 0 0 0 0.8875 0 0 0 0.25 0"/>
<feBlend mode="normal" in2="BackgroundImageFix" result="effect1_dropShadow"/>
<feBlend mode="normal" in="SourceGraphic" in2="effect1_dropShadow" result="shape"/>
<feColorMatrix in="SourceAlpha" type="matrix" values="0 0 0 0 0 0 0 0 0 0 0 0 0 0 0 0 0 0 127 0" result="hardAlpha"/>
<feOffset dx="10" dy="2"/>
<feGaussianBlur stdDeviation="10"/>
<feComposite in2="hardAlpha" operator="arithmetic" k2="-1" k3="1"/>
<feColorMatrix type="matrix" values="0 0 0 0 1 0 0 0 0 1 0 0 0 0 1 0 0 0 0.25 0"/>
<feBlend mode="normal" in2="shape" result="effect2_innerShadow"/>
<feColorMatrix in="SourceAlpha" type="matrix" values="0 0 0 0 0 0 0 0 0 0 0 0 0 0 0 0 0 0 127 0" result="hardAlpha"/>
<feOffset dx="-2" dy="-10"/>
<feGaussianBlur stdDeviation="10"/>
<feComposite in2="hardAlpha" operator="arithmetic" k2="-1" k3="1"/>
<feColorMatrix type="matrix" values="0 0 0 0 0.603194 0 0 0 0 0.64135 0 0 0 0 0.841667 0 0 0 0.25 0"/>
<feBlend mode="normal" in2="effect2_innerShadow" result="effect3_innerShadow"/>
</filter>
<filter id="filter1_i" x="69.251" y="485.821" width="237.664" height="49.3389" filterUnits="userSpaceOnUse" color-interpolation-filters="sRGB">
<feFlood flood-opacity="0" result="BackgroundImageFix"/>
<feBlend mode="normal" in="SourceGraphic" in2="BackgroundImageFix" result="shape"/>
<feColorMatrix in="SourceAlpha" type="matrix" values="0 0 0 0 0 0 0 0 0 0 0 0 0 0 0 0 0 0 127 0" result="hardAlpha"/>
<feOffset dy="4"/>
<feGaussianBlur stdDeviation="2"/>
<feComposite in2="hardAlpha" operator="arithmetic" k2="-1" k3="1"/>
<feColorMatrix type="matrix" values="0 0 0 0 0 0 0 0 0 0 0 0 0 0 0 0 0 0 0.25 0"/>
<feBlend mode="normal" in2="shape" result="effect1_innerShadow"/>
</filter>
<filter id="filter2_i" x="69.251" y="348.341" width="237.664" height="41.2949" filterUnits="userSpaceOnUse" color-interpolation-filters="sRGB">
<feFlood flood-opacity="0" result="BackgroundImageFix"/>
<feBlend mode="normal" in="SourceGraphic" in2="BackgroundImageFix" result="shape"/>
<feColorMatrix in="SourceAlpha" type="matrix" values="0 0 0 0 0 0 0 0 0 0 0 0 0 0 0 0 0 0 127 0" result="hardAlpha"/>
<feOffset dy="4"/>
<feGaussianBlur stdDeviation="2"/>
<feComposite in2="hardAlpha" operator="arithmetic" k2="-1" k3="1"/>
<feColorMatrix type="matrix" values="0 0 0 0 0 0 0 0 0 0 0 0 0 0 0 0 0 0 0.07 0"/>
<feBlend mode="normal" in2="shape" result="effect1_innerShadow"/>
</filter>
<filter id="filter3_i" x="69.251" y="400.993" width="237.664" height="41.2949" filterUnits="userSpaceOnUse" color-interpolation-filters="sRGB">
<feFlood flood-opacity="0" result="BackgroundImageFix"/>
<feBlend mode="normal" in="SourceGraphic" in2="BackgroundImageFix" result="shape"/>
<feColorMatrix in="SourceAlpha" type="matrix" values="0 0 0 0 0 0 0 0 0 0 0 0 0 0 0 0 0 0 127 0" result="hardAlpha"/>
<feOffset dy="4"/>
<feGaussianBlur stdDeviation="2"/>
<feComposite in2="hardAlpha" operator="arithmetic" k2="-1" k3="1"/>
<feColorMatrix type="matrix" values="0 0 0 0 0 0 0 0 0 0 0 0 0 0 0 0 0 0 0.08 0"/>
<feBlend mode="normal" in2="shape" result="effect1_innerShadow"/>
</filter>
<clipPath id="clip0">
<rect width="274.227" height="450.464" fill="white" transform="translate(50.9692 149.435)"/>
</clipPath>
</defs>
</svg>
